<svg xmlns="http://www.w3.org/2000/svg" xmlns:xlink="http://www.w3.org/1999/xlink" width="1920" zoomAndPan="magnify" viewBox="0 0 1440 809.999993" height="1080" preserveAspectRatio="xMidYMid meet" version="1.0"><path fill="#000000" d="M 1395.332031 327.925781 C 1396.265625 320.339844 1411.382812 326.929688 1413.597656 320.625 C 1417.4375 304.605469 1401.242188 308.625 1402.636719 295.054688 C 1439.800781 292.402344 1421.039062 356.113281 1395.332031 327.925781 Z M 1395.332031 327.925781 " fill-opacity="1" fill-rule="evenodd"/><path fill="#000000" d="M 1051.957031 525.125 C 1063.636719 489.949219 1072.410156 464.570312 1062.914062 422.871094 C 1076.875 434.964844 1077.492188 480.113281 1070.222656 503.214844 C 1067.128906 513.011719 1059.546875 524.726562 1051.957031 525.125 Z M 1051.957031 525.125 " fill-opacity="1" fill-rule="evenodd"/><path fill="#000000" d="M 1008.101562 506.867188 C 998.769531 506.457031 1000.851562 494.636719 1000.796875 484.953125 C 1013.996094 481.496094 1005.890625 499.339844 1008.101562 506.867188 Z M 1008.101562 506.867188 " fill-opacity="1" fill-rule="evenodd"/><path fill="#000000" d="M 956.980469 61.335938 C 954.753906 70.066406 961.566406 87.832031 953.324219 90.546875 C 939.074219 91.238281 947.820312 60.652344 956.980469 61.335938 Z M 956.980469 61.335938 " fill-opacity="1" fill-rule="evenodd"/><path fill="#000000" d="M 935.0625 514.175781 C 920.949219 506.988281 955.054688 480.953125 938.71875 459.390625 C 962.980469 469.703125 948.40625 502.289062 935.0625 514.175781 Z M 935.0625 514.175781 " fill-opacity="1" fill-rule="evenodd"/><path fill="#000000" d="M 902.199219 671.203125 C 882.433594 657.652344 857.300781 631.472656 854.710938 612.769531 C 874.246094 628.542969 889.585938 648.519531 902.199219 671.203125 Z M 902.199219 671.203125 " fill-opacity="1" fill-rule="evenodd"/><path fill="#000000" d="M 876.613281 685.808594 C 857.621094 670.695312 830.246094 644.574219 836.433594 616.425781 C 849.394531 618.875 843.519531 630.242188 847.394531 638.34375 C 855.015625 654.273438 873.679688 665.679688 876.613281 685.808594 Z M 876.613281 685.808594 " fill-opacity="1" fill-rule="evenodd"/><path fill="#000000" d="M 843.722656 707.71875 C 816.714844 686.019531 803.742188 650.300781 792.582031 612.761719 C 810.777344 616.519531 807.882812 638.5625 814.496094 652.941406 C 823.890625 673.332031 845.875 690.480469 843.722656 707.71875 Z M 843.722656 707.71875 " fill-opacity="1" fill-rule="evenodd"/><path fill="#000000" d="M 799.890625 693.113281 C 776.070312 696.179688 766.007812 653.996094 767.015625 620.070312 C 788.050781 633.375 775.566406 681.597656 799.890625 693.113281 Z M 799.890625 693.113281 " fill-opacity="1" fill-rule="evenodd"/><path fill="#000000" d="M 756.0625 466.683594 C 770.554688 452.914062 780.367188 432.789062 777.980469 411.902344 C 794.761719 427.503906 783.425781 471.5625 756.0625 466.683594 Z M 756.0625 466.683594 " fill-opacity="1" fill-rule="evenodd"/><path fill="#000000" d="M 745.125 704.085938 C 732.421875 677.835938 728.5 642.804688 723.210938 609.140625 C 741.515625 619.46875 741.355469 667.132812 745.125 689.476562 C 745.953125 694.429688 762.972656 704.199219 745.125 704.085938 Z M 745.125 704.085938 " fill-opacity="1" fill-rule="evenodd"/><path fill="#000000" d="M 701.257812 426.535156 C 702.890625 411.125 716.9375 408.121094 712.21875 386.363281 C 727.058594 390.863281 720.425781 432.191406 701.257812 426.535156 Z M 701.257812 426.535156 " fill-opacity="1" fill-rule="evenodd"/><path fill="#000000" d="M 715.902344 700.414062 C 696.652344 694.601562 698.46875 650.660156 701.285156 634.679688 C 713.695312 649.058594 711.316406 678.222656 715.902344 700.414062 Z M 715.902344 700.414062 " fill-opacity="1" fill-rule="evenodd"/><path fill="#000000" d="M 683.007812 689.460938 C 669.785156 684.949219 657.792969 635.625 679.351562 631.039062 C 677.996094 653.085938 680.386719 671.386719 683.007812 689.460938 Z M 683.007812 689.460938 " fill-opacity="1" fill-rule="evenodd"/><path fill="#000000" d="M 668.402344 170.890625 L 668.402344 185.496094 L 653.789062 185.496094 C 658.101562 180.074219 656.945312 169.179688 668.402344 170.890625 Z M 668.402344 170.890625 " fill-opacity="1" fill-rule="evenodd"/><path fill="#000000" d="M 668.402344 368.09375 L 668.402344 393.660156 C 654.503906 396.585938 663.761719 376.394531 661.09375 368.09375 Z M 668.402344 368.09375 " fill-opacity="1" fill-rule="evenodd"/><path fill="#000000" d="M 650.121094 631.019531 C 643.574219 638.023438 637.746094 664.679688 646.46875 674.839844 C 634.875 687.363281 633.953125 658.351562 628.199219 652.933594 C 633.410156 643.519531 636.761719 632.273438 650.121094 631.019531 Z M 650.121094 631.019531 " fill-opacity="1" fill-rule="evenodd"/><path fill="#000000" d="M 642.828125 218.367188 C 639.835938 227.542969 638.046875 237.933594 624.5625 236.625 C 626.648438 226.535156 628.4375 216.144531 642.828125 218.367188 Z M 642.828125 218.367188 " fill-opacity="1" fill-rule="evenodd"/><path fill="#000000" d="M 639.171875 141.679688 C 638.871094 147.460938 640.929688 155.609375 635.515625 156.289062 C 622.691406 160.273438 625.742188 133.882812 639.171875 141.679688 Z M 639.171875 141.679688 " fill-opacity="1" fill-rule="evenodd"/><path fill="#000000" d="M 620.914062 612.769531 C 615.464844 631.671875 619.261719 659.808594 602.65625 667.550781 C 601.078125 655.085938 603.285156 617.917969 620.914062 612.769531 Z M 620.914062 612.769531 " fill-opacity="1" fill-rule="evenodd"/><path fill="#000000" d="M 591.683594 609.109375 C 584.121094 624.683594 583.257812 646.945312 577.066406 663.894531 C 569.261719 647.457031 571.332031 609.546875 591.683594 609.109375 Z M 591.683594 609.109375 " fill-opacity="1" fill-rule="evenodd"/><path fill="#000000" d="M 584.378906 298.707031 L 584.378906 320.621094 C 571.183594 324.078125 579.285156 306.234375 577.070312 298.707031 Z M 584.378906 298.707031 " fill-opacity="1" fill-rule="evenodd"/><path fill="#000000" d="M 569.765625 579.898438 C 572.515625 599.746094 552.734375 628.550781 544.199219 649.28125 C 539.535156 627.511719 557.171875 596.570312 569.765625 579.898438 Z M 569.765625 579.898438 " fill-opacity="1" fill-rule="evenodd"/><path fill="#000000" d="M 551.523438 561.660156 C 559.332031 590.207031 525.082031 608.238281 518.648438 634.699219 C 504.546875 613.035156 547.066406 588.730469 551.523438 561.660156 Z M 551.523438 561.660156 " fill-opacity="1" fill-rule="evenodd"/><path fill="#000000" d="M 482.09375 627.378906 C 484.609375 610.414062 497.273438 603.59375 507.671875 594.511719 C 512.179688 585.621094 510.75 570.816406 522.289062 568.949219 C 523.238281 588.847656 502.523438 616.863281 482.09375 627.378906 Z M 482.09375 627.378906 " fill-opacity="1" fill-rule="evenodd"/><path fill="#000000" d="M 504.023438 557.988281 C 492.769531 580.832031 473.472656 595.621094 460.1875 616.417969 C 461.117188 597.820312 478.503906 564.179688 504.023438 557.988281 Z M 504.023438 557.988281 " fill-opacity="1" fill-rule="evenodd"/><path fill="#000000" d="M 467.5 554.355469 C 455.089844 571.164062 447.351562 592.65625 423.660156 598.179688 C 436.210938 581.5 446.851562 562.925781 467.5 554.355469 Z M 467.5 554.355469 " fill-opacity="1" fill-rule="evenodd"/><path fill="#000000" d="M 452.882812 225.671875 C 452.628906 241.824219 444.40625 248.210938 456.535156 269.492188 C 440.230469 274.503906 443.457031 239.035156 434.609375 258.535156 C 425.886719 247.191406 444.175781 231.71875 452.882812 225.671875 Z M 452.882812 225.671875 " fill-opacity="1" fill-rule="evenodd"/><path fill="#000000" d="M 445.585938 539.75 C 440.066406 562.222656 421.085938 571.257812 398.09375 576.269531 C 410.6875 560.859375 430.984375 553.167969 445.582031 539.75 Z M 445.585938 539.75 " fill-opacity="1" fill-rule="evenodd"/><path fill="#000000" d="M 409.019531 309.660156 C 388.527344 296.078125 390.082031 260.433594 376.152344 240.277344 C 398.582031 255.613281 397.816406 278.921875 409.019531 309.660156 Z M 409.019531 309.660156 " fill-opacity="1" fill-rule="evenodd"/><path fill="#000000" d="M 387.144531 517.839844 C 389.804688 533.96875 355.378906 544.460938 335.992188 550.695312 C 348.660156 535.367188 371.75 530.453125 387.144531 517.839844 Z M 387.144531 517.839844 " fill-opacity="1" fill-rule="evenodd"/><path fill="#000000" d="M 379.839844 492.261719 C 360.753906 507.28125 345.769531 526.367188 317.734375 532.433594 C 320.785156 520.882812 335.679688 521.164062 343.300781 514.179688 C 354.179688 506.785156 368.394531 487.382812 379.839844 492.261719 Z M 379.839844 492.261719 " fill-opacity="1" fill-rule="evenodd"/><path fill="#000000" d="M 361.558594 309.660156 C 352.722656 305.109375 349.742188 294.695312 346.945312 284.101562 C 354.347656 290.097656 361.519531 296.3125 361.558594 309.660156 Z M 361.558594 309.660156 " fill-opacity="1" fill-rule="evenodd"/><path fill="#000000" d="M 350.582031 470.351562 C 343.839844 490.390625 329.136719 502.472656 303.101562 503.226562 C 321.039062 494.386719 335.589844 482.144531 350.582031 470.351562 Z M 350.582031 470.351562 " fill-opacity="1" fill-rule="evenodd"/><path fill="#000000" d="M 325.035156 448.445312 C 334.992188 465.832031 305.113281 474.703125 292.15625 481.3125 C 300.613281 467.84375 318.058594 463.375 325.035156 448.445312 Z M 325.035156 448.445312 " fill-opacity="1" fill-rule="evenodd"/><path fill="#000000" d="M 314.058594 433.839844 C 306.207031 445.464844 294.148438 452.890625 273.863281 452.09375 C 289.140625 447.886719 298.585938 437.84375 314.058594 433.839844 Z M 314.058594 433.839844 " fill-opacity="1" fill-rule="evenodd"/><path fill="#000000" d="M 1187.113281 145.328125 C 1184.957031 156.558594 1169.089844 154.085938 1161.546875 159.941406 C 1175.171875 218.128906 1202.179688 262.953125 1209.035156 327.925781 C 1203.5625 317.570312 1200.019531 305.289062 1198.078125 291.40625 C 1177.457031 332.359375 1207.867188 383.238281 1198.078125 437.484375 C 1226.960938 417.242188 1201.210938 378.625 1205.378906 342.53125 C 1219.238281 371.328125 1214.410156 407.429688 1212.6875 444.796875 C 1260.894531 460.382812 1247.554688 389.28125 1241.910156 353.496094 C 1233.066406 297.363281 1243.660156 214.972656 1212.6875 192.8125 C 1214.285156 180.253906 1211.246094 172.339844 1209.035156 163.59375 C 1209.121094 146.464844 1186.792969 151.75 1187.117188 134.378906 C 1219.320312 132.617188 1212.140625 170.230469 1227.300781 185.507812 C 1241.074219 188.78125 1258.242188 188.664062 1271.140625 192.816406 C 1277.757812 203.230469 1289.03125 209.015625 1285.75 229.332031 C 1298.867188 234.480469 1318.277344 233.328125 1329.582031 240.289062 C 1335.71875 254.847656 1337.742188 273.519531 1355.152344 276.808594 C 1352.828125 285.164062 1347.90625 298.835938 1355.152344 306.023438 C 1357.085938 311.644531 1358.960938 306.253906 1358.804688 302.375 C 1374.320312 302.6875 1357.902344 334.925781 1373.417969 335.242188 C 1399.042969 312.984375 1358.792969 281.601562 1362.453125 269.507812 C 1386.003906 276.90625 1394.460938 317.167969 1384.371094 346.199219 C 1376.542969 354.082031 1363.964844 348.070312 1358.800781 342.542969 C 1349.75 350.539062 1349.894531 367.726562 1340.539062 375.414062 C 1325.96875 379.023438 1329.539062 364.503906 1314.964844 368.109375 C 1309.246094 385.519531 1310.75 410.15625 1289.394531 411.933594 C 1270.542969 416.175781 1270.253906 401.859375 1263.824219 393.675781 C 1252.914062 415.640625 1253.925781 449.511719 1230.945312 459.410156 C 1215 461.964844 1214.703125 448.867188 1201.71875 448.453125 C 1190.035156 478.464844 1184.847656 533.429688 1135.96875 514.195312 C 1128.113281 536.765625 1114.421875 553.523438 1099.4375 568.972656 C 1059.726562 574.453125 1024.171875 598.960938 975.238281 583.582031 C 957.007812 619.042969 918.570312 664.992188 960.628906 700.4375 C 957.828125 794.867188 781.800781 758.539062 712.230469 744.261719 C 657.703125 733.066406 604.722656 724.976562 547.851562 707.746094 C 533.070312 703.261719 519.378906 690.78125 504.015625 685.824219 C 484.539062 679.558594 460.839844 682.039062 441.921875 674.878906 C 430.84375 670.691406 419.027344 659.308594 405.390625 652.972656 C 393.042969 647.222656 376.148438 644.707031 365.207031 638.363281 C 356.851562 633.523438 352.585938 623.476562 343.285156 616.445312 C 306.539062 588.648438 251.824219 564.664062 251.96875 506.898438 C 239.964844 489.683594 227.355469 473.070312 208.128906 463.074219 C 193.527344 461.859375 187.863281 469.585938 171.601562 466.730469 C 150.046875 459.066406 145.625 434.257812 131.417969 419.25 C 132.535156 395.035156 129.144531 373.914062 120.453125 357.171875 C 112.097656 341.023438 92.824219 332.304688 87.589844 313.347656 C 98.964844 320.238281 107.65625 329.800781 120.453125 335.261719 C 141.398438 371.546875 136.179688 433.980469 171.601562 455.773438 C 216.972656 440.320312 229.996094 473.894531 255.621094 488.640625 C 255.917969 502.4375 260.539062 526.355469 270.222656 539.773438 C 295.695312 575.03125 350.472656 616.164062 405.390625 642.027344 C 435.121094 656.015625 457.117188 662.53125 496.710938 674.894531 C 510.238281 679.117188 523.152344 688.933594 536.894531 693.148438 C 552.988281 698.09375 570.625 695.832031 588.042969 700.453125 C 631.519531 712.003906 684.613281 734.304688 734.15625 740.625 C 742.496094 741.691406 751.445312 739.21875 759.730469 740.625 C 791.804688 746.09375 868.046875 760.261719 909.5 747.933594 C 926.492188 742.878906 949.183594 726.109375 949.679688 707.761719 C 950.097656 692.425781 928.675781 674.535156 927.765625 667.585938 C 922.328125 626.167969 956.847656 621.960938 960.640625 583.597656 C 919.804688 560.296875 870.605469 554.21875 825.480469 536.117188 C 800.808594 526.21875 780.054688 508.632812 756.078125 499.597656 C 743.207031 494.742188 729.621094 497.871094 715.894531 492.296875 C 679.332031 477.429688 644.019531 446.777344 606.308594 437.519531 C 600.214844 436.027344 590.894531 438.636719 584.390625 437.519531 C 570.726562 424.394531 553.179688 415.15625 525.949219 415.605469 C 457.421875 380.191406 355.226562 373.109375 270.230469 364.476562 C 256.664062 363.082031 260.691406 379.277344 244.667969 375.433594 C 247.046875 371.71875 253.066406 371.65625 251.972656 364.476562 C 228.066406 346.035156 208.617188 371.050781 182.574219 371.78125 C 192.675781 366.058594 202.878906 360.433594 215.445312 357.175781 C 175.085938 331.792969 110.742188 330.378906 80.292969 295.09375 C 52.128906 276.984375 2.695312 280.152344 -0.078125 236.664062 C 39.21875 198.394531 145.996094 229.914062 222.75 222.058594 C 302.632812 213.875 367.371094 178.53125 412.695312 141.71875 C 480.480469 128.847656 544.878906 92.542969 620.921875 79.632812 C 637.46875 76.820312 655.347656 79.207031 672.066406 75.980469 C 691.753906 72.183594 712.78125 60.375 734.160156 54.070312 C 756.160156 47.574219 779.976562 46.105469 799.914062 39.460938 C 818.09375 33.40625 829.988281 30.269531 854.707031 28.507812 C 902.738281 25.078125 954.917969 14.792969 1008.128906 21.199219 C 1025.355469 31.972656 1033.792969 51.535156 1048.3125 65.023438 C 1077.738281 56.414062 1090.511719 79.4375 1121.371094 79.628906 C 1138.28125 99.246094 1144.082031 129.960938 1157.902344 152.671875 C 1170.21875 152.726562 1174.148438 133.4375 1187.113281 145.328125 Z M 1347.839844 302.363281 C 1344.65625 282.5 1320.894531 234.535156 1300.351562 240.277344 C 1285.363281 255.25 1302.515625 284.972656 1318.617188 291.40625 C 1326.007812 317.351562 1323.882812 339.675781 1333.226562 357.140625 C 1353.046875 351.253906 1350.902344 321.476562 1347.839844 302.363281 Z M 1307.660156 302.363281 C 1316.222656 310.84375 1306.929688 337.175781 1318.617188 342.527344 C 1318.507812 327.898438 1318.292969 294.347656 1307.660156 302.363281 Z M 1307.660156 364.441406 C 1313.761719 314.199219 1278.476562 246.761719 1271.132812 203.757812 C 1259.867188 196.761719 1244.3125 194.046875 1227.292969 192.804688 C 1235.429688 222.769531 1251.433594 255.855469 1252.859375 291.40625 C 1253.113281 297.582031 1248.339844 306.78125 1249.207031 313.316406 C 1251.558594 331.011719 1261.929688 348.984375 1263.820312 364.445312 C 1264.867188 373.027344 1251.980469 382.953125 1267.476562 386.359375 C 1293.671875 352.949219 1250.847656 312.167969 1263.820312 280.453125 C 1272.914062 319.28125 1294.460938 357.558594 1278.433594 400.96875 C 1304.542969 405.511719 1305.941406 378.558594 1307.660156 364.441406 Z M 1008.121094 32.121094 C 1005.28125 31.300781 1000.914062 32.019531 1000.816406 28.46875 C 933.964844 34.65625 870.476562 25.363281 825.472656 35.769531 C 818.554688 37.375 813.871094 44.207031 807.207031 46.730469 C 747.9375 69.191406 687.453125 76.195312 628.210938 86.898438 C 608.910156 90.390625 591.554688 99.9375 573.421875 105.160156 C 537.269531 115.570312 513.296875 119.929688 482.09375 130.722656 C 446.449219 143.054688 420.34375 154.160156 398.085938 167.238281 C 359.894531 189.683594 331.664062 206.230469 284.839844 218.367188 C 263.425781 223.917969 238.410156 230.734375 219.097656 232.972656 C 144.8125 241.589844 75.117188 211.382812 7.230469 240.28125 C 8.589844 270.101562 44.03125 267.496094 65.675781 276.800781 C 83.347656 284.402344 96.234375 301.125 113.164062 309.664062 C 131.945312 319.152344 159.140625 323.691406 182.570312 331.578125 C 206.773438 339.734375 230.636719 349.664062 251.96875 353.492188 C 274.039062 357.445312 296.058594 354.976562 317.71875 357.140625 C 398.769531 365.246094 476.109375 377.292969 540.546875 408.269531 C 555.242188 405.753906 561.402344 411.769531 573.425781 411.921875 C 637.738281 441.121094 706.734375 473.066406 770.683594 499.570312 C 850.542969 532.667969 933.878906 573.5625 1044.652344 572.609375 C 1055.8125 569.160156 1056.097656 554.832031 1070.222656 554.34375 C 1076.722656 557.589844 1079.507812 564.546875 1092.140625 561.648438 C 1093.148438 548.285156 1108.078125 549.402344 1114.054688 539.742188 C 1123.484375 524.5 1120.097656 502.835938 1125.019531 484.960938 C 1129.925781 467.101562 1141.207031 452.949219 1143.28125 433.839844 C 1144.957031 418.351562 1130.058594 398.621094 1146.929688 386.363281 C 1166.871094 430.105469 1136.082031 471.378906 1135.972656 503.222656 C 1165.886719 496.617188 1152.628906 446.835938 1168.847656 426.53125 C 1163.449219 460.863281 1163.984375 480.117188 1154.238281 506.875 C 1208.25 490.710938 1184.421875 392.1875 1179.8125 309.664062 C 1177.433594 267.183594 1177.601562 236.417969 1165.199219 214.71875 C 1155.628906 207.238281 1143.839844 201.988281 1125.019531 203.757812 C 1123.3125 237.109375 1133.855469 258.21875 1135.976562 287.757812 C 1152.160156 288.617188 1162.0625 295.761719 1165.199219 309.660156 C 1154.597656 306.875 1155.722656 292.355469 1139.628906 295.054688 C 1127.632812 304.214844 1152.078125 319.105469 1143.28125 324.273438 C 1124.320312 299.398438 1125.753906 254.144531 1121.363281 214.71875 C 1119.664062 201.808594 1104.984375 201.875 1106.753906 185.5 C 1119.5625 184.511719 1100.15625 169.332031 1110.402344 170.894531 C 1117.441406 193.074219 1142.402344 197.339844 1165.199219 203.761719 C 1163.242188 176.507812 1148.945312 161.582031 1143.285156 138.03125 C 1127.066406 138.417969 1121.84375 127.8125 1103.101562 130.722656 C 1091.414062 133.199219 1096.207031 142.855469 1092.144531 145.332031 C 1066.65625 105.074219 1037.261719 68.71875 1008.121094 32.121094 Z M 1132.320312 127.066406 C 1136.554688 79.011719 1091.171875 80.558594 1055.609375 72.289062 C 1064.480469 107.25 1085.859375 129.695312 1132.320312 127.066406 Z M 1132.320312 127.066406 " fill-opacity="1" fill-rule="evenodd"/><path fill="#000000" d="M 1168.847656 404.617188 C 1164.773438 409.625 1162.628906 381.832031 1157.890625 375.398438 C 1151.675781 374.054688 1150.992188 378.246094 1150.582031 382.703125 C 1144.578125 373.621094 1145.53125 343.84375 1146.925781 338.882812 C 1164.90625 357.898438 1158.753906 378.414062 1168.847656 404.617188 Z M 1168.847656 404.617188 " fill-opacity="1" fill-rule="evenodd"/><path fill="#000000" d="M 1081.175781 550.6875 C 1069.890625 544.914062 1092.734375 531.585938 1095.785156 521.472656 C 1100.769531 504.96875 1097.238281 478.015625 1099.4375 455.738281 C 1102.863281 421.144531 1112.238281 384.675781 1110.394531 357.136719 C 1107.71875 316.992188 1093.925781 288.183594 1088.484375 240.277344 C 1086.5 222.847656 1077.285156 207.636719 1070.21875 189.152344 C 1057.171875 155.042969 1046.097656 123.605469 1022.730469 101.507812 C 1056.40625 120.675781 1065.238281 158 1084.828125 211.066406 C 1101.875 257.230469 1123.6875 336.863281 1117.703125 397.308594 C 1116.6875 407.566406 1108.832031 416.75 1106.746094 426.527344 C 1105.53125 432.210938 1110.808594 441.148438 1110.394531 448.433594 C 1109.960938 456.238281 1103.402344 460.222656 1103.09375 466.699219 C 1101.375 502.414062 1110.382812 534.980469 1081.175781 550.6875 Z M 1081.175781 550.6875 " fill-opacity="1" fill-rule="evenodd"/><path fill="#000000" d="M 1019.078125 90.546875 C 1009 81.144531 1001.484375 69.183594 1000.8125 50.378906 C 1009.949219 60.722656 1015.304688 74.839844 1019.078125 90.546875 Z M 1019.078125 90.546875 " fill-opacity="1" fill-rule="evenodd"/><path fill="#000000" d="M 913.136719 627.386719 C 902.664062 638.792969 898.371094 613.144531 891.226562 609.132812 C 896.238281 603.175781 908.917969 620.4375 913.136719 627.386719 Z M 913.136719 627.386719 " fill-opacity="1" fill-rule="evenodd"/><path fill="#000000" d="M 522.289062 316.96875 C 526.175781 276.558594 501.085938 265.125 496.710938 232.972656 C 511.511719 241.441406 517.59375 269.839844 522.289062 291.40625 C 522.871094 294.125 541.140625 310.941406 522.289062 316.96875 Z M 522.289062 316.96875 " fill-opacity="1" fill-rule="evenodd"/><path fill="#000000" d="M 405.386719 532.449219 C 398.089844 550.71875 379.277344 557.472656 357.898438 561.660156 C 375.175781 553.367188 388.0625 540.695312 405.386719 532.449219 Z M 405.386719 532.449219 " fill-opacity="1" fill-rule="evenodd"/><path fill="#000000" d="M 230.054688 382.703125 C 219.070312 401.246094 175.742188 407.097656 204.476562 390.007812 C 210.289062 386.550781 222.359375 387.164062 230.054688 382.703125 Z M 230.054688 382.703125 " fill-opacity="1" fill-rule="evenodd"/></svg>