<svg xmlns="http://www.w3.org/2000/svg" xmlns:xlink="http://www.w3.org/1999/xlink" width="1920" zoomAndPan="magnify" viewBox="0 0 1440 809.999993" height="1080" preserveAspectRatio="xMidYMid meet" version="1.0"><path fill="#000000" d="M 373.054688 601.800781 C 412.789062 625.5625 453.761719 646.765625 496.242188 665.171875 C 555.9375 694.703125 617.964844 718.878906 681.460938 738.890625 C 724.03125 752.167969 766.011719 768.195312 810.140625 775.703125 C 873.585938 785.457031 936.53125 798.1875 1000.34375 805.511719 C 1026.988281 809.589844 1053.722656 805.421875 1078.898438 796.355469 C 1113.875 784.769531 1139.324219 753.953125 1150.082031 719.382812 C 1151.226562 718.46875 1152.1875 717.324219 1152.785156 715.90625 C 1156.628906 705.28125 1160.933594 694.75 1164.59375 684.035156 C 1203.6875 646.855469 1209.824219 583.894531 1218.292969 532.292969 C 1225.203125 486.273438 1233.351562 440.304688 1236.238281 393.828125 C 1237.472656 366.035156 1239.347656 338.195312 1240.449219 310.355469 C 1241.089844 308.292969 1241.042969 306.003906 1240.675781 303.625 C 1241.179688 288.332031 1241.457031 273.082031 1240.953125 257.789062 C 1239.988281 141.761719 1227.996094 32.648438 1092.632812 9.796875 C 1046.304688 -0.183594 998.972656 4.671875 952.554688 11.722656 C 917.394531 16.253906 882.375 22.390625 847.90625 30.585938 C 754.199219 53.023438 660.675781 76.46875 568.207031 103.621094 C 466.992188 137.457031 361.613281 165.617188 258.886719 195.65625 C 236.410156 201.972656 214.164062 209.117188 191.960938 216.351562 C 161.976562 225.554688 131.03125 233.980469 104.066406 250.371094 C 81.316406 248.769531 91.617188 289.382812 99.125 302.433594 C 98.300781 303.625 97.660156 304.996094 97.292969 306.691406 C 96.652344 309.394531 97.339844 312.050781 98.894531 314.15625 C 103.976562 332.058594 108.507812 350.097656 112.171875 368.367188 C 118.578125 411.730469 134.691406 455.367188 168.84375 484.488281 C 210.867188 519.835938 261.3125 543.375 309.242188 569.609375 C 330.484375 580.644531 352.136719 590.03125 373.054688 601.800781 Z M 110.796875 270.703125 C 125.859375 260.445312 142.75 253.53125 160.097656 247.714844 C 160.144531 252.25 162.386719 256.828125 166.691406 258.796875 C 183.539062 266.445312 217.871094 250.464844 216.542969 230.40625 C 216.496094 230.269531 216.40625 230.226562 216.359375 230.085938 C 229.40625 225.828125 242.5 221.753906 255.683594 217.863281 C 255.269531 220.792969 255.683594 223.722656 258.0625 226.148438 C 269.460938 237.550781 298.621094 222.898438 305.761719 211.453125 C 307.367188 208.886719 307.367188 205.867188 306.449219 203.117188 C 319.726562 199.316406 332.953125 195.5625 346.230469 191.761719 C 348.105469 198.402344 353.691406 204.902344 359.597656 206.78125 C 374.566406 211.589844 389.261719 202.570312 401.4375 194.601562 C 405.742188 191.671875 410.640625 188.144531 411.554688 182.605469 C 412.148438 178.851562 411.003906 175.828125 408.945312 173.722656 C 466.214844 157.144531 523.34375 140.066406 579.96875 121.203125 C 661.226562 97.710938 744.675781 76.511719 827.304688 56.503906 C 830.191406 71.019531 847.171875 80.910156 860.496094 84.707031 C 871.617188 88.507812 889.152344 84.570312 888.375 70.101562 C 887.320312 59.664062 877.113281 53.753906 868.503906 49.773438 C 867.039062 49.222656 865.53125 48.535156 863.972656 47.847656 C 898.671875 40.203125 932.867188 34.570312 968.988281 30.082031 C 1013.667969 22.847656 1059.304688 21.839844 1103.4375 32.875 C 1138.820312 40.660156 1163.175781 56.730469 1180.296875 77.886719 C 1167.433594 69.140625 1149.167969 59.570312 1134.382812 68.683594 C 1125.636719 74.589844 1120.738281 87.777344 1129.027344 96.15625 C 1134.382812 101.421875 1140.378906 100.6875 1147.472656 103.621094 C 1174.207031 112.960938 1195.90625 132.007812 1209.363281 156.917969 C 1210.464844 158.839844 1212.15625 160.121094 1213.988281 161.085938 C 1214.996094 167.035156 1215.820312 173.035156 1216.550781 179.125 C 1207.761719 168.226562 1197.234375 158.933594 1184.417969 153.070312 C 1161.070312 141.074219 1132.550781 149.269531 1133.054688 178.941406 C 1133.832031 189.425781 1144.773438 193.457031 1153.929688 191.945312 C 1162.855469 191.671875 1171.828125 192.769531 1180.25 195.746094 C 1191.601562 200.003906 1200.574219 208.476562 1208.21875 217.679688 C 1212.753906 222.394531 1215.363281 229.261719 1220.03125 233.84375 C 1220.304688 244.097656 1220.441406 254.308594 1220.582031 264.382812 C 1213.621094 255.730469 1205.472656 248.035156 1196.226562 241.992188 C 1186.109375 235.535156 1174.574219 229.082031 1162.121094 230.636719 C 1143.71875 232.46875 1131.773438 258.707031 1148.894531 270.335938 C 1177.960938 285.355469 1199.339844 287.871094 1217.511719 319.238281 C 1218.0625 319.832031 1218.796875 320.0625 1219.4375 320.519531 C 1219.117188 328.121094 1218.976562 335.722656 1218.566406 343.277344 C 1207.167969 328.441406 1194.121094 313.925781 1177.046875 306.1875 C 1152.328125 295.472656 1133.101562 315.710938 1135.066406 340.027344 C 1136.898438 348.496094 1145.964844 350.785156 1153.46875 349.136719 C 1161.664062 349 1169.765625 351.382812 1176.953125 355.136719 C 1216.003906 378.257812 1208.953125 398.679688 1214.628906 407.839844 C 1214.355469 411.960938 1214.125 416.125 1213.804688 420.246094 C 1207.671875 465.578125 1201.765625 511.046875 1193.890625 556.148438 C 1193.480469 556.285156 1193.023438 556.378906 1192.609375 556.558594 C 1187.484375 559.308594 1185.882812 565.855469 1182.035156 569.929688 C 1167.25 583.851562 1150.863281 576.980469 1134.382812 571.210938 C 1119.640625 565.398438 1102.75 574.738281 1105.90625 591.726562 C 1112.042969 612.878906 1136.898438 622.585938 1157.085938 623.730469 C 1165.464844 623.730469 1173.566406 621.257812 1180.800781 617.136719 C 1175.765625 632.9375 1169.445312 645.800781 1161.710938 656.332031 C 1159.925781 656.425781 1158.1875 656.976562 1156.628906 658.164062 C 1153.699219 660.957031 1150.402344 662.195312 1146.648438 663.476562 C 1147.109375 663.15625 1147.609375 662.972656 1148.113281 662.742188 C 1130.902344 671.261719 1115.476562 656.472656 1104.671875 644.519531 C 1095.972656 634.261719 1079.953125 626.480469 1072.628906 642.503906 C 1070.246094 648.046875 1070.84375 654.273438 1068.507812 659.8125 C 1065.53125 666.726562 1061.367188 673.503906 1061.550781 681.289062 C 1060.726562 690.765625 1065.210938 697.40625 1071.894531 701.433594 C 1063.058594 702.761719 1053.765625 703.863281 1043.925781 704.777344 C 1003.914062 701.433594 964.136719 698.046875 924.71875 688.066406 C 892.128906 679.730469 859.625 669.796875 827.214844 659.539062 C 842.183594 658.210938 851.203125 637.789062 845.296875 624.007812 C 840.261719 608.988281 813.847656 571.761719 796.910156 590.488281 C 793.886719 591.863281 791.507812 594.609375 791.097656 598.042969 C 789.859375 611.734375 802.859375 645.527344 816.136719 656.058594 C 774.25 642.6875 732.453125 628.859375 690.570312 616.726562 C 604.78125 591.496094 521.742188 558.4375 439.480469 523.546875 C 413.707031 511.960938 387.980469 500.195312 362.664062 487.695312 C 375.023438 482.152344 380.976562 466.539062 366.007812 456.191406 C 357.582031 451.339844 347.878906 449.644531 338.402344 448.269531 C 331.808594 446.300781 323.480469 449.324219 322.929688 456.832031 C 320.550781 459.761719 319.816406 462.648438 319.816406 465.441406 C 304.527344 457.105469 289.511719 448.316406 274.816406 438.976562 C 284.75 435.039062 289.601562 422.582031 280.265625 411.320312 C 272.117188 401.292969 242.40625 380 234.488281 399.277344 C 230.6875 398.726562 226.75 400.46875 224.460938 403.582031 C 195.804688 381.191406 164.769531 359.257812 140.507812 331.507812 C 130.617188 319.375 123.25 305.5 116.703125 291.351562 C 113.679688 284.714844 110.613281 277.984375 110.796875 270.703125 Z M 1129.757812 591.039062 C 1129.527344 591.359375 1129.300781 591.679688 1129.117188 592.046875 C 1128.707031 591.589844 1128.246094 591.128906 1127.835938 590.625 C 1127.789062 590.535156 1127.742188 590.488281 1127.699219 590.398438 C 1128.382812 590.625 1129.070312 590.808594 1129.757812 591.039062 Z M 1084.667969 684.953125 C 1083.75 684.8125 1082.789062 684.632812 1082.058594 684.082031 C 1081.875 682.433594 1081.828125 680.648438 1082.285156 679.042969 C 1082.789062 681.105469 1083.570312 683.074219 1084.667969 684.953125 Z M 165.5 451.429688 C 141.878906 421.804688 135.972656 384.808594 128.558594 348.449219 C 143.023438 364.933594 160.007812 379.402344 177.539062 392.683594 C 213.566406 422.078125 251.289062 449.371094 291.207031 473.269531 C 426.796875 546.898438 571.546875 602.851562 719.363281 646.582031 C 787.800781 667.046875 855.046875 691.773438 924.445312 708.808594 C 961.207031 718.378906 997.734375 720.484375 1035.640625 724.832031 C 1049.328125 725.886719 1061.550781 723.644531 1075.238281 721.125 C 1095.746094 718.605469 1116.527344 713.386719 1135.386719 703.769531 C 1135.160156 704.367188 1134.929688 704.960938 1134.746094 705.554688 C 1133.464844 706.699219 1132.277344 708.074219 1131.636719 710.136719 C 1117.808594 760.042969 1077.890625 782.984375 1028.542969 786.511719 C 1005.699219 786.695312 983.132812 782.433594 960.5625 779.550781 C 924.398438 775.292969 888.832031 767.601562 852.988281 761.785156 C 831.699219 758.625 810.460938 755.511719 789.449219 750.796875 C 754.839844 742.507812 721.46875 730.144531 687.546875 719.660156 C 630.097656 701.390625 573.789062 680.371094 519.5 653.769531 C 499.8125 644.472656 480.039062 635.453125 460.261719 626.433594 C 433.390625 614.070312 408.441406 598.183594 382.578125 583.941406 C 331.855469 557.382812 278.570312 532.886719 229.816406 502.253906 C 206.242188 488.152344 182.714844 473.179688 165.5 451.429688 Z M 165.5 451.429688 " fill-opacity="1" fill-rule="nonzero"/><path fill="#000000" d="M 1136.210938 428.71875 C 1142.484375 431.558594 1148.984375 433.664062 1155.074219 436.960938 C 1165.28125 442.5 1174.300781 452.023438 1186.566406 452.300781 C 1223.28125 452.527344 1204.144531 408.753906 1183.363281 398.726562 C 1170.546875 390.027344 1139.417969 376.792969 1125.453125 386.640625 C 1121.015625 390.53125 1120.28125 397.765625 1124.449219 402.023438 C 1118.3125 411.867188 1127.195312 424.230469 1136.210938 428.71875 Z M 1136.210938 428.71875 " fill-opacity="1" fill-rule="nonzero"/><path fill="#000000" d="M 1162.304688 528.902344 C 1170.363281 532.292969 1182.171875 533.574219 1187.527344 525.011719 C 1192.0625 516.402344 1193.847656 504.863281 1188.765625 496.121094 C 1176.863281 477.667969 1147.429688 484.261719 1136.808594 464.296875 C 1137.355469 459.167969 1133.421875 454.132812 1128.292969 453.351562 C 1125.363281 452.847656 1122.34375 453.71875 1120.054688 455.550781 C 1115.292969 456.648438 1111.628906 461.273438 1110.988281 466.128906 C 1108.515625 482.792969 1115.429688 501.15625 1129.027344 511.320312 C 1139.324219 518.691406 1151.503906 522.492188 1162.304688 528.902344 Z M 1168.945312 508.023438 C 1169.308594 507.246094 1169.539062 506.421875 1169.675781 505.597656 C 1171.875 506.332031 1171.371094 508.4375 1171.050781 510.3125 C 1170.773438 510.222656 1170.546875 510.128906 1170.269531 510.039062 C 1169.628906 509.765625 1168.945312 509.445312 1168.300781 509.125 C 1168.578125 508.757812 1168.761719 508.390625 1168.945312 508.023438 Z M 1168.945312 508.023438 " fill-opacity="1" fill-rule="nonzero"/><path fill="#000000" d="M 968.117188 100.917969 C 983.222656 101.421875 1003.914062 85.855469 1009.453125 72.117188 C 1013.207031 61.171875 1004.328125 48.582031 992.515625 49.773438 C 982.355469 37.777344 966.425781 57.191406 959.464844 64.789062 C 949.898438 76.101562 950.722656 98.445312 968.117188 100.917969 Z M 968.117188 100.917969 " fill-opacity="1" fill-rule="nonzero"/><path fill="#000000" d="M 1067.453125 102.519531 C 1091.808594 105.40625 1097.941406 78.070312 1084.941406 61.675781 C 1076.703125 48.535156 1053.402344 36.082031 1043.285156 53.710938 C 1034.265625 50.550781 1025.890625 61.996094 1031.929688 69.507812 C 1040.8125 82.695312 1050.609375 99.453125 1067.453125 102.519531 Z M 1067.453125 102.519531 " fill-opacity="1" fill-rule="nonzero"/><path fill="#000000" d="M 994.074219 122.4375 C 982.675781 115.339844 966.5625 136.175781 960.839844 144.644531 C 953.925781 153.894531 954.15625 169.1875 965.554688 174.730469 C 984.367188 183.335938 1006.707031 161.632812 1013.253906 145.332031 C 1017.558594 133.609375 1006.386719 120.242188 994.074219 122.4375 Z M 994.074219 122.4375 " fill-opacity="1" fill-rule="nonzero"/><path fill="#000000" d="M 1059.582031 123.859375 C 1050.195312 120.746094 1033.898438 130.269531 1037.105469 141.210938 C 1034.769531 156.6875 1047.359375 178.164062 1062.144531 183.519531 C 1074.777344 187.777344 1089.703125 176.789062 1090.160156 163.648438 C 1089.929688 148.8125 1072.71875 130.222656 1059.582031 123.859375 Z M 1067.957031 163.878906 C 1067.042969 163.375 1066.21875 162.6875 1065.53125 161.910156 C 1065.667969 161.816406 1065.808594 161.726562 1065.945312 161.632812 C 1066.769531 161.039062 1067.453125 160.398438 1068.050781 159.617188 C 1068.417969 160.261719 1068.738281 160.902344 1069.101562 161.589844 C 1069.238281 161.910156 1069.378906 162.230469 1069.515625 162.550781 C 1068.964844 163.007812 1068.507812 163.511719 1067.957031 163.878906 Z M 1067.957031 163.878906 " fill-opacity="1" fill-rule="nonzero"/><path fill="#000000" d="M 1053.171875 223.769531 C 1043.054688 211.132812 1028.039062 228.578125 1029.917969 240.4375 C 1030.648438 248.082031 1035.59375 254.722656 1039.988281 260.765625 C 1045.984375 268.640625 1052.074219 277.9375 1062.738281 279.402344 C 1078.945312 281.417969 1089.289062 265.574219 1083.613281 250.96875 C 1079.355469 239.792969 1065.257812 225.371094 1053.171875 223.769531 Z M 1053.171875 223.769531 " fill-opacity="1" fill-rule="nonzero"/><path fill="#000000" d="M 948.480469 253.898438 C 947.976562 260.859375 953.378906 267.359375 960.335938 268 C 973.0625 269.511719 984.277344 260.308594 993.617188 252.84375 C 1007.304688 243.777344 1016.457031 223.21875 999.015625 212.917969 C 978.28125 204.261719 958.550781 223.996094 945.777344 238.191406 C 946.738281 237.140625 947.792969 236.269531 949.074219 235.675781 C 943.625 238.328125 941.246094 245.5625 945.046875 250.921875 C 946.007812 252.203125 947.152344 253.164062 948.480469 253.898438 Z M 986.613281 231.597656 C 986.566406 231.691406 986.472656 231.734375 986.429688 231.828125 C 985.511719 232.742188 984.550781 233.660156 983.542969 234.527344 C 983.40625 234.027344 983.222656 233.476562 983.042969 232.972656 C 984.230469 232.46875 985.421875 232.011719 986.613281 231.597656 Z M 986.613281 231.597656 " fill-opacity="1" fill-rule="nonzero"/><path fill="#000000" d="M 948.523438 355.226562 C 969.398438 371.164062 1015.679688 323.40625 992.699219 304.128906 C 979.105469 293.6875 963.265625 306.691406 952.828125 315.757812 C 946.097656 321.664062 935.570312 332.378906 944.542969 340.804688 C 943.125 345.933594 944.222656 351.472656 948.523438 355.226562 Z M 948.523438 355.226562 " fill-opacity="1" fill-rule="nonzero"/><path fill="#000000" d="M 1057.382812 376.929688 C 1071.527344 384.945312 1082.515625 372.078125 1081.460938 358.019531 C 1082.652344 347.03125 1079.859375 335.996094 1070.886719 328.898438 C 1063.199219 321.800781 1054.820312 314.109375 1044.292969 311.910156 C 1032.25 309.394531 1013.941406 330.320312 1027.628906 339.019531 C 1029.871094 355.824219 1043.878906 368.277344 1057.382812 376.929688 Z M 1061 351.839844 C 1061 352.710938 1061.046875 353.535156 1061.046875 354.402344 C 1060.449219 353.945312 1059.855469 353.488281 1059.261719 352.984375 C 1059.855469 352.664062 1060.449219 352.25 1061 351.839844 Z M 1061 351.839844 " fill-opacity="1" fill-rule="nonzero"/><path fill="#000000" d="M 1040.492188 454.3125 C 1048.824219 462.28125 1061.59375 470.980469 1072.765625 463.335938 C 1085.171875 454.542969 1080.179688 439.066406 1072.8125 428.71875 C 1065.164062 416.996094 1047.90625 385.265625 1030.96875 395.429688 C 1024.425781 400.695312 1014.765625 410.539062 1023.417969 418.417969 C 1024.378906 432.152344 1030.238281 445.15625 1040.492188 454.3125 Z M 1055.828125 440.121094 C 1056.011719 440.441406 1056.195312 440.761719 1056.375 441.082031 C 1056.054688 440.808594 1055.734375 440.53125 1055.414062 440.257812 C 1055.550781 440.210938 1055.691406 440.164062 1055.828125 440.121094 Z M 1055.828125 440.121094 " fill-opacity="1" fill-rule="nonzero"/><path fill="#000000" d="M 997.003906 377.390625 C 985.238281 369.742188 971.640625 378.167969 962.394531 385.996094 C 955.070312 392.957031 939.414062 404.632812 950.265625 414.980469 C 949.761719 419.101562 950.949219 423.132812 953.699219 426.429688 C 960.015625 434.257812 971.140625 431.558594 978.691406 427.117188 C 996.316406 419.5625 1016.960938 393.1875 997.003906 377.390625 Z M 997.003906 377.390625 " fill-opacity="1" fill-rule="nonzero"/><path fill="#000000" d="M 935.84375 515.808594 C 952.09375 525.972656 976.21875 508.300781 982.8125 493.050781 C 989.90625 478.8125 979.5625 459.257812 962.441406 463.5625 C 950.628906 466.265625 941.476562 474.277344 932.320312 481.605469 C 926.871094 484.261719 924.949219 491.90625 928.792969 496.898438 C 927.238281 503.949219 929.710938 511.6875 935.84375 515.808594 Z M 935.84375 515.808594 " fill-opacity="1" fill-rule="nonzero"/><path fill="#000000" d="M 1016.503906 526.109375 C 1017.601562 529.179688 1020.257812 531.605469 1023.417969 532.566406 C 1024.925781 536.320312 1027.078125 539.753906 1030.101562 542.457031 C 1038.523438 550.789062 1055.917969 555.050781 1062.234375 542.136719 C 1066.402344 527.804688 1065.074219 509.351562 1053.859375 498.410156 C 1041.042969 484.304688 1012.246094 480.917969 1009.773438 505.183594 C 1008.675781 512.832031 1011.238281 520.523438 1016.503906 526.109375 Z M 1043.652344 524.140625 C 1043.695312 524.875 1043.742188 525.652344 1043.789062 526.386719 C 1043.789062 526.660156 1043.789062 526.980469 1043.789062 527.253906 C 1043.101562 526.523438 1042.597656 525.652344 1042.277344 524.738281 C 1042.734375 524.601562 1043.191406 524.371094 1043.652344 524.140625 Z M 1043.652344 524.140625 " fill-opacity="1" fill-rule="nonzero"/><path fill="#000000" d="M 933.144531 595.296875 C 956.8125 599.738281 983.5 573.457031 969.855469 550.515625 C 965.507812 541.585938 954.382812 536.09375 945.089844 540.855469 C 938.5 544.058594 933.097656 549.601562 928.429688 555.09375 C 926.78125 557.0625 926.003906 559.492188 926.09375 561.917969 C 916.800781 572.722656 916.617188 591.953125 933.144531 595.296875 Z M 942.300781 574.371094 C 942.574219 574.050781 942.800781 573.730469 943.078125 573.410156 C 943.808594 573.546875 944.542969 573.640625 945.273438 573.640625 C 944.863281 573.777344 944.496094 573.960938 944.085938 574.097656 C 943.445312 574.28125 942.800781 574.417969 942.160156 574.554688 C 942.207031 574.507812 942.253906 574.464844 942.300781 574.371094 Z M 942.300781 574.371094 " fill-opacity="1" fill-rule="nonzero"/><path fill="#000000" d="M 1008.90625 570.160156 C 1004.878906 568.054688 999.886719 569.152344 996.957031 572.3125 C 990.273438 580.1875 995.765625 594.886719 998.925781 603.632812 C 1002.589844 612.695312 1010.050781 622.175781 1020.671875 622.3125 C 1036.648438 622.726562 1046.351562 604.089844 1039.941406 590.261719 C 1035.777344 578.492188 1022.730469 560.132812 1008.90625 570.160156 Z M 1021.171875 601.386719 C 1019.34375 599.417969 1018.152344 596.945312 1017.238281 594.472656 C 1017.921875 594.289062 1018.5625 594.015625 1019.207031 593.695312 C 1020.210938 595.984375 1022.042969 598.824219 1021.171875 601.386719 Z M 1021.171875 601.386719 " fill-opacity="1" fill-rule="nonzero"/><path fill="#000000" d="M 940.742188 620.34375 C 926.003906 616.910156 908.835938 622.816406 899.3125 634.628906 C 892.585938 632.113281 884.757812 637.558594 884.894531 644.792969 C 885.03125 650.199219 888.328125 655.371094 891.164062 659.859375 C 894.003906 664.300781 897.253906 668.878906 902.0625 671.261719 C 919.824219 676.984375 939.1875 657.019531 948.984375 644.0625 C 955.207031 635.636719 950.769531 623.183594 940.742188 620.34375 Z M 919.410156 645.710938 C 918.953125 646.078125 918.496094 646.398438 918.035156 646.765625 C 917.898438 646.214844 917.714844 645.664062 917.535156 645.160156 C 919.410156 643.375 921.789062 642.09375 924.261719 641.40625 C 922.707031 642.871094 921.058594 644.335938 919.410156 645.710938 Z M 919.410156 645.710938 " fill-opacity="1" fill-rule="nonzero"/><path fill="#000000" d="M 981.027344 637.421875 C 977.042969 633.484375 969.765625 633.988281 966.242188 638.429688 C 964.410156 640.628906 963.816406 643.238281 963.90625 646.078125 C 964.226562 654.410156 965.417969 662.882812 969.492188 670.300781 C 973.609375 677.304688 979.652344 683.808594 987.480469 686.417969 C 1001.167969 690.628906 1012.339844 676.25 1009.683594 663.339844 C 1007.347656 650.65625 996.820312 628.953125 981.027344 637.421875 Z M 981.027344 637.421875 " fill-opacity="1" fill-rule="nonzero"/><path fill="#000000" d="M 747.972656 121.707031 C 760.882812 127.015625 783.085938 115.84375 792.835938 107.144531 C 799.703125 99.726562 794.574219 86.722656 784.550781 86.035156 C 781.621094 73.445312 768.710938 79.121094 760.5625 83.703125 C 746.921875 90.296875 728.65625 110.441406 747.972656 121.707031 Z M 747.972656 121.707031 " fill-opacity="1" fill-rule="nonzero"/><path fill="#000000" d="M 750.71875 182.285156 C 762.164062 181.644531 773.792969 181.460938 785.191406 179.949219 C 809.5 173.675781 801.304688 151.378906 779.652344 148.949219 C 768.117188 146.707031 746.507812 143.683594 741.839844 157.878906 C 738.957031 160.351562 736.941406 163.558594 736.667969 167.859375 C 736.347656 172.621094 738.589844 177.292969 742.570312 179.996094 C 745 181.597656 747.835938 182.285156 750.71875 182.285156 Z M 750.71875 182.285156 " fill-opacity="1" fill-rule="nonzero"/><path fill="#000000" d="M 865.667969 171.113281 C 876.792969 170.652344 888.785156 172.074219 899.40625 168.226562 C 921.148438 154.171875 879.492188 117.449219 865.347656 135.214844 C 855.917969 130.40625 849.601562 139.425781 848.683594 147.988281 C 845.570312 159.664062 853.078125 171.296875 865.667969 171.113281 Z M 869.148438 150.050781 C 869.742188 150.324219 870.382812 150.597656 871.070312 150.78125 C 870.382812 150.78125 869.648438 150.78125 868.964844 150.78125 C 869.007812 150.507812 869.054688 150.277344 869.148438 150.050781 Z M 869.148438 150.050781 " fill-opacity="1" fill-rule="nonzero"/><path fill="#000000" d="M 874.777344 246.480469 C 886.175781 247.578125 900.597656 247.121094 907.644531 236.636719 C 917.351562 222.167969 906.042969 203.714844 888.832031 204.859375 C 880.269531 204.21875 871.710938 204.445312 863.148438 204.628906 C 856.328125 202.339844 848.546875 208.660156 849.828125 215.800781 C 840.214844 231.371094 860.539062 245.792969 874.777344 246.480469 Z M 888.648438 225.371094 C 889.152344 225.417969 889.609375 225.464844 890.113281 225.464844 C 889.5625 225.601562 889.015625 225.738281 888.417969 225.875 C 888.464844 225.691406 888.554688 225.554688 888.648438 225.371094 Z M 888.648438 225.371094 " fill-opacity="1" fill-rule="nonzero"/><path fill="#000000" d="M 767.933594 221.800781 C 763.492188 223.632812 758.363281 225.050781 753.605469 224.042969 C 748.019531 223.035156 742.066406 227.292969 741.703125 233.203125 C 734.789062 243.230469 743.394531 256.78125 753.605469 260.535156 C 771.824219 267.085938 797.550781 257.285156 808.628906 241.855469 C 816.042969 231.875 815.679688 214.0625 801.898438 210.167969 C 789.355469 207.054688 778.734375 217.128906 767.933594 221.800781 Z M 767.933594 221.800781 " fill-opacity="1" fill-rule="nonzero"/><path fill="#000000" d="M 781.070312 300.875 C 765.964844 300.28125 728.929688 312.644531 740.28125 332.882812 C 740.375 334.441406 740.742188 335.996094 741.519531 337.554688 C 742.984375 340.574219 745.730469 342.683594 748.890625 343.734375 C 757.679688 346.800781 766.332031 342.132812 774.9375 340.710938 C 782.488281 339.339844 790.730469 340.851562 797.640625 337.003906 C 818.652344 325.738281 799.519531 299.914062 781.070312 300.875 Z M 781.070312 300.875 " fill-opacity="1" fill-rule="nonzero"/><path fill="#000000" d="M 869.789062 303.992188 C 869.695312 303.992188 869.558594 303.992188 869.46875 304.035156 C 869.605469 304.035156 869.695312 304.082031 869.832031 304.082031 C 870.292969 304.128906 870.703125 304.035156 871.160156 304.128906 C 870.703125 304.035156 870.199219 304.035156 869.789062 303.992188 Z M 869.789062 303.992188 " fill-opacity="1" fill-rule="nonzero"/><path fill="#000000" d="M 855.09375 323.953125 C 853.078125 341.765625 865.210938 361.363281 883.292969 364.796875 C 905.953125 366.902344 912.957031 344.285156 902.792969 326.882812 C 898.214844 316.902344 889.929688 304.082031 877.203125 307.46875 C 876.835938 307.058594 876.472656 306.691406 876.058594 306.324219 C 874.226562 304.816406 872.078125 304.128906 869.789062 304.035156 C 859.488281 303.257812 856.007812 315.4375 855.09375 323.953125 Z M 883.75 342.453125 C 884.757812 342.085938 885.625 341.582031 886.40625 340.941406 C 886.726562 342.039062 887 343.183594 887.046875 344.332031 C 886.910156 344.421875 886.769531 344.511719 886.632812 344.605469 C 886.632812 344.605469 886.632812 344.605469 886.589844 344.605469 C 886.726562 344.511719 886.863281 344.421875 887.046875 344.332031 C 885.535156 344.925781 883.886719 343.644531 882.695312 342.773438 C 883.0625 342.683594 883.429688 342.589844 883.75 342.453125 Z M 883.75 342.453125 " fill-opacity="1" fill-rule="nonzero"/><path fill="#000000" d="M 842.183594 429.773438 C 842.917969 445.613281 865.941406 454.957031 879.675781 455.871094 C 891.074219 457.75 908.242188 451.0625 902.792969 436.960938 C 893.730469 420.429688 875.097656 406.511719 855.734375 406.601562 C 843.464844 406.054688 828.726562 420.246094 842.183594 429.773438 Z M 871.207031 432.289062 C 871.527344 432.519531 871.847656 432.746094 872.167969 432.976562 C 872.535156 433.25 872.902344 433.570312 873.3125 433.894531 C 872.855469 433.753906 872.398438 433.617188 871.984375 433.480469 C 871.617188 433.34375 871.296875 433.160156 870.933594 433.023438 C 870.976562 432.746094 871.113281 432.519531 871.207031 432.289062 Z M 871.207031 432.289062 " fill-opacity="1" fill-rule="nonzero"/><path fill="#000000" d="M 743.761719 419.011719 C 745.042969 419.652344 746.464844 420.019531 747.972656 419.972656 C 758.226562 419.605469 768.390625 420.386719 778.507812 422.214844 C 788.027344 424.09375 800.9375 419.101562 799.929688 407.703125 C 797.277344 392.957031 778.140625 391.628906 766.101562 389.386719 C 752.183594 387.464844 734.058594 392.453125 730.074219 407.5625 C 727.738281 414.15625 736.621094 422.261719 743.761719 419.011719 Z M 743.761719 419.011719 " fill-opacity="1" fill-rule="nonzero"/><path fill="#000000" d="M 721.148438 483.4375 C 720.964844 483.160156 720.917969 482.886719 720.78125 482.566406 C 720.691406 482.382812 720.507812 482.292969 720.414062 482.109375 C 720.554688 482.566406 720.875 482.976562 721.148438 483.4375 Z M 721.148438 483.4375 " fill-opacity="1" fill-rule="nonzero"/><path fill="#000000" d="M 727.28125 487.417969 C 729.570312 490.121094 732.820312 491.769531 736.574219 492.042969 C 743.671875 492.226562 750.492188 489.386719 757.402344 488.058594 C 768.4375 485.496094 783.816406 485.632812 788.210938 472.8125 C 792.46875 445.890625 754.566406 448.546875 738.910156 457.472656 C 729.113281 461.367188 713.777344 470.476562 720.78125 482.566406 C 722.246094 485.039062 724.582031 486.824219 727.28125 487.417969 Z M 727.28125 487.417969 " fill-opacity="1" fill-rule="nonzero"/><path fill="#000000" d="M 852.4375 563.886719 C 870.703125 567.960938 884.664062 553.949219 878.027344 535.773438 C 873.953125 520.296875 850.5625 494.058594 837.195312 515.121094 C 831.195312 511.824219 823.230469 516.265625 822.40625 522.8125 C 821.082031 539.070312 837.058594 559.398438 852.4375 563.886719 Z M 853.535156 538.886719 C 854.589844 538.335938 855.503906 537.558594 856.285156 536.6875 C 857.609375 539.023438 858.527344 541.542969 859.121094 544.152344 C 859.03125 544.152344 858.9375 544.199219 858.847656 544.199219 C 858.847656 544.199219 858.9375 544.152344 859.03125 544.152344 C 858.433594 544.199219 857.792969 544.152344 857.199219 544.058594 C 854.910156 543.375 853.125 541.265625 851.339844 539.753906 C 852.117188 539.527344 852.851562 539.253906 853.535156 538.886719 Z M 853.535156 538.886719 " fill-opacity="1" fill-rule="nonzero"/><path fill="#000000" d="M 724.71875 546.714844 C 725.679688 547.90625 726.824219 548.960938 728.152344 549.785156 C 735.84375 554.316406 745.546875 552.484375 753.789062 550.515625 C 782.765625 544.058594 781.300781 515.535156 750.675781 514.664062 C 738.039062 513.65625 713.046875 521.164062 710.757812 535.453125 C 709.199219 543.007812 717.394531 550.011719 724.71875 546.714844 Z M 724.71875 546.714844 " fill-opacity="1" fill-rule="nonzero"/><path fill="#000000" d="M 720.324219 609.078125 C 728.5625 609.539062 737.765625 609.902344 745.089844 605.507812 C 753.148438 600.746094 753.695312 588.519531 746.1875 582.933594 C 734.195312 573.867188 705.125 569.289062 702.152344 589.300781 C 692.582031 602.761719 709.15625 608.804688 720.324219 609.078125 Z M 720.324219 609.078125 " fill-opacity="1" fill-rule="nonzero"/><path fill="#000000" d="M 628.355469 158.109375 C 643.1875 160.902344 675.78125 154.535156 679.171875 137.046875 C 680.132812 131.460938 677.0625 125.371094 671.890625 122.941406 C 671.617188 115.84375 663.148438 111.128906 656.96875 114.609375 C 647.171875 117.171875 637.238281 120.011719 628.90625 125.964844 C 615.21875 132.648438 611.144531 153.253906 628.355469 158.109375 Z M 628.355469 158.109375 " fill-opacity="1" fill-rule="nonzero"/><path fill="#000000" d="M 638.976562 200.964844 C 633.574219 202.339844 631.332031 207.835938 631.148438 213.007812 C 629.683594 233.476562 654.542969 237.917969 669.96875 240.894531 C 702.148438 249.960938 719.910156 215.296875 689.699219 198.585938 C 674.914062 192.128906 651.796875 189.335938 638.976562 200.964844 Z M 638.976562 200.964844 " fill-opacity="1" fill-rule="nonzero"/><path fill="#000000" d="M 683.382812 275.691406 C 668.824219 267.773438 646.257812 264.796875 631.195312 272.488281 C 619.15625 271.617188 616.410156 288.285156 619.566406 297.167969 C 626.207031 312.460938 645.980469 312.371094 660.21875 313.558594 C 686.402344 318.183594 707.507812 295.335938 683.382812 275.691406 Z M 683.382812 275.691406 " fill-opacity="1" fill-rule="nonzero"/><path fill="#000000" d="M 683.246094 332.472656 C 672.761719 330.640625 662.003906 331.554688 651.429688 332.011719 C 647.125 332.425781 642.546875 332.058594 638.609375 334.074219 C 632.292969 337.417969 631.011719 346.984375 637.144531 351.425781 C 633.988281 361.683594 644.058594 369.238281 652.710938 371.988281 C 666.078125 376.429688 682.464844 375.421875 694.78125 368.550781 C 710.894531 357.976562 700 334.898438 683.246094 332.472656 Z M 678.207031 353.214844 C 677.707031 353.304688 677.203125 353.351562 676.699219 353.441406 C 676.835938 353.03125 676.972656 352.617188 677.019531 352.207031 C 677.84375 352.296875 678.621094 352.433594 679.445312 352.617188 C 679.71875 352.710938 679.949219 352.753906 680.222656 352.847656 C 679.582031 352.9375 678.894531 353.074219 678.207031 353.214844 Z M 678.207031 353.214844 " fill-opacity="1" fill-rule="nonzero"/><path fill="#000000" d="M 656.191406 437.371094 C 661.636719 438.425781 667.222656 440.851562 672.667969 442.226562 C 687.410156 444.195312 693.589844 425.742188 684.9375 415.394531 C 678.988281 407.289062 661.269531 395.796875 646.804688 393.828125 C 645.9375 393.371094 645.113281 392.910156 643.96875 392.683594 C 639.527344 391.859375 634.996094 391.675781 630.554688 392.5 C 627.257812 393.140625 624.511719 395.15625 622.453125 397.765625 C 612.746094 398.5 609.359375 414.9375 615.675781 423.222656 C 624.96875 436 642.457031 433.984375 656.191406 437.371094 Z M 649.140625 415.441406 C 646.347656 415.074219 643.554688 414.707031 640.761719 414.25 C 643.601562 413.242188 646.4375 414.570312 649.140625 415.441406 Z M 649.140625 415.441406 " fill-opacity="1" fill-rule="nonzero"/><path fill="#000000" d="M 630.140625 496.53125 C 630.140625 496.53125 629.59375 496.484375 629.59375 496.484375 C 642.960938 499.371094 664.980469 493.050781 659.484375 475.605469 C 653.535156 459.945312 600.15625 459.855469 596.953125 477.621094 C 595.761719 494.242188 618.242188 494.929688 630.140625 496.53125 Z M 630.140625 496.53125 " fill-opacity="1" fill-rule="nonzero"/><path fill="#000000" d="M 580.109375 543.144531 C 586.058594 544.792969 592.421875 545.066406 598.144531 547.585938 C 604.78125 550.011719 610.640625 554.363281 617.597656 555.828125 C 648.867188 556.789062 629.820312 504.359375 586.425781 517.640625 C 571.089844 520.066406 564.816406 535.222656 580.109375 543.144531 Z M 580.109375 543.144531 " fill-opacity="1" fill-rule="nonzero"/><path fill="#000000" d="M 513.640625 200.507812 C 521.925781 204.261719 531.078125 206.371094 539.960938 203.898438 C 554.746094 200.050781 575.941406 182.007812 558.042969 168.363281 C 548.839844 162.824219 538.726562 169.097656 528.835938 167.859375 C 518.171875 165.890625 497.84375 155.863281 495.738281 173.355469 C 485.804688 185.304688 504.070312 196.113281 513.640625 200.507812 Z M 513.640625 200.507812 " fill-opacity="1" fill-rule="nonzero"/><path fill="#000000" d="M 486.949219 268.183594 C 502.378906 279.953125 540.511719 267.449219 540.191406 246.480469 C 539.730469 241.945312 536.574219 237.277344 531.902344 236.132812 C 521.328125 234.574219 510.296875 237.09375 499.996094 233.566406 C 497.203125 229.675781 491.480469 228.210938 487.269531 230.453125 C 478.617188 231.507812 473.765625 240.984375 474.085938 249.042969 C 474.363281 257.058594 480.496094 264.109375 486.949219 268.183594 Z M 486.949219 268.183594 " fill-opacity="1" fill-rule="nonzero"/><path fill="#000000" d="M 527.234375 290.804688 C 520.046875 287.871094 514.78125 294.605469 510.890625 299.640625 C 502.011719 315.347656 523.984375 326.335938 537.214844 326.105469 C 555.890625 327.527344 587.570312 312.691406 576.582031 290.070312 C 565.046875 271.664062 542.25 284.4375 527.234375 290.804688 Z M 527.234375 290.804688 " fill-opacity="1" fill-rule="nonzero"/><path fill="#000000" d="M 502.515625 393.230469 C 518.125 393.414062 534.925781 389.570312 546.828125 378.992188 C 555.523438 371.574219 553.007812 356.648438 541.882812 353.351562 C 527.738281 349.273438 512.769531 356.554688 498.53125 352.894531 C 496.335938 352.390625 495.144531 351.015625 492.902344 350.28125 C 489.605469 349.230469 486.082031 350.007812 483.472656 352.070312 C 470.652344 355.089844 468.503906 369.835938 475.550781 379.585938 C 481.089844 388.699219 492.167969 392.910156 502.515625 393.230469 Z M 502.515625 393.230469 " fill-opacity="1" fill-rule="nonzero"/><path fill="#000000" d="M 490.109375 453.488281 C 507.960938 459.121094 533.324219 461 546.507812 445.25 C 554.242188 434.535156 547.652344 417.957031 534.332031 416.355469 C 518.996094 414.980469 502.515625 419.699219 488.691406 412.003906 C 486.585938 411.730469 484.386719 412.050781 482.234375 413.195312 C 470.789062 412.328125 465.160156 424.871094 469.554688 434.441406 C 473.125 443.601562 480.90625 450.238281 490.109375 453.488281 Z M 490.109375 453.488281 " fill-opacity="1" fill-rule="nonzero"/><path fill="#000000" d="M 465.847656 506.605469 C 474.222656 508.710938 485.027344 509.855469 491.984375 503.445312 C 497.066406 498.773438 498.074219 490.855469 494 485.128906 C 490.109375 479.773438 484.753906 477.484375 479.03125 474.277344 C 467.816406 468.324219 449.550781 451.292969 440.257812 468.417969 C 435.359375 470.019531 432.566406 474.78125 432.980469 480.046875 C 435.910156 495.066406 452.34375 502.988281 465.847656 506.605469 Z M 465.847656 506.605469 " fill-opacity="1" fill-rule="nonzero"/><path fill="#000000" d="M 385.78125 280.914062 C 402.949219 283.890625 428.585938 269.464844 433.117188 252.296875 C 435.863281 236.910156 418.695312 231.140625 406.703125 236.359375 C 399.101562 238.695312 392.191406 242.589844 384.730469 245.199219 C 378.914062 245.882812 373.46875 249.914062 373.789062 256.277344 C 365.273438 265.070312 374.886719 280.132812 385.78125 280.914062 Z M 385.78125 280.914062 " fill-opacity="1" fill-rule="nonzero"/><path fill="#000000" d="M 177.585938 325.097656 C 198.507812 334.210938 217.550781 313.605469 198.324219 296.710938 C 192.371094 290.988281 185.183594 287.964844 177.355469 285.125 C 171.910156 281.875 164.035156 284.851562 162.296875 291.03125 C 145.265625 303.210938 163.578125 320.886719 177.585938 325.097656 Z M 177.585938 325.097656 " fill-opacity="1" fill-rule="nonzero"/><path fill="#000000" d="M 261.039062 253.027344 C 261.085938 253.027344 261.128906 253.027344 261.175781 253.027344 C 261.496094 253.027344 261.863281 252.9375 262.230469 252.9375 C 261.769531 252.980469 261.359375 252.9375 261.039062 253.027344 Z M 261.039062 253.027344 " fill-opacity="1" fill-rule="nonzero"/><path fill="#000000" d="M 264.058594 289.703125 C 281.457031 292.085938 303.246094 287.550781 313.042969 271.753906 C 317.023438 263.511719 312.996094 252.019531 303.886719 249.363281 C 294.226562 246.25 285.300781 252.707031 275.960938 254.171875 C 270.789062 255.453125 266.121094 253.257812 261.085938 253.074219 C 260.535156 253.121094 259.984375 253.074219 259.4375 253.210938 C 256.507812 253.898438 254.082031 255.957031 252.707031 258.566406 C 236.867188 268.273438 247.71875 289.109375 264.058594 289.703125 Z M 264.058594 289.703125 " fill-opacity="1" fill-rule="nonzero"/><path fill="#000000" d="M 254.628906 330.824219 C 250.921875 332.289062 248.039062 335.769531 248.128906 339.980469 C 249.59375 355.824219 272.300781 359.851562 285.210938 361.273438 C 300.542969 363.378906 315.101562 350.421875 305.855469 335.445312 C 295.417969 320.75 260.167969 304.21875 254.628906 330.824219 Z M 279.074219 339.84375 C 277.519531 339.429688 275.960938 339.019531 274.40625 338.515625 C 274.496094 338.285156 274.589844 338.011719 274.679688 337.78125 C 275.550781 338.011719 276.417969 338.332031 277.289062 338.605469 C 278.386719 339.019531 279.441406 339.476562 280.449219 340.117188 C 279.945312 340.027344 279.488281 339.980469 279.074219 339.84375 Z M 279.074219 339.84375 " fill-opacity="1" fill-rule="nonzero"/><path fill="#000000" d="M 381.296875 363.148438 C 398.097656 365.941406 434.582031 353.808594 426.386719 331.328125 C 422.90625 324.503906 415.355469 321.480469 408.167969 320.152344 C 395.257812 318.277344 379.191406 311.820312 367.882812 321.253906 C 361.472656 319.695312 355.433594 324.046875 353.96875 330.273438 C 349.207031 347.261719 365.320312 361.820312 381.296875 363.148438 Z M 381.296875 363.148438 " fill-opacity="1" fill-rule="nonzero"/><path fill="#000000" d="M 371.179688 429.175781 C 380.65625 430 391.414062 428.398438 398.738281 421.941406 C 408.304688 412.648438 401.667969 396.710938 390.132812 392.730469 C 380.378906 389.386719 361.566406 383.34375 353.003906 390.898438 C 346 392.636719 340.554688 399.644531 341.835938 407.015625 C 344.214844 420.109375 359.046875 427.4375 371.179688 429.175781 Z M 371.179688 429.175781 " fill-opacity="1" fill-rule="nonzero"/></svg>