<svg xmlns="http://www.w3.org/2000/svg" xmlns:xlink="http://www.w3.org/1999/xlink" width="1920" zoomAndPan="magnify" viewBox="0 0 1440 809.999993" height="1080" preserveAspectRatio="xMidYMid meet" version="1.0"><path fill="#000000" d="M 970.152344 790.257812 C 995.605469 806.5625 1024.773438 803.128906 1049.082031 789.113281 C 1067.386719 799.410156 1087.40625 799.125 1104.851562 791.976562 C 1105.136719 792.546875 1105.707031 793.117188 1106.28125 793.40625 C 1126.585938 808.277344 1152.324219 799.410156 1168.339844 782.535156 C 1195.507812 791.402344 1217.527344 774.8125 1234.6875 752.503906 C 1246.699219 751.933594 1258.710938 751.074219 1270.722656 750.503906 C 1271.578125 750.503906 1272.4375 750.21875 1273.007812 749.644531 C 1274.4375 749.644531 1275.582031 749.074219 1276.726562 747.644531 C 1289.308594 727.90625 1299.320312 706.171875 1305.613281 683.289062 C 1306.183594 681.574219 1305.613281 680.144531 1304.46875 679 C 1304.179688 678.714844 1303.894531 678.429688 1303.609375 678.429688 C 1294.457031 671.847656 1286.449219 665.269531 1276.15625 660.980469 C 1281.304688 629.519531 1275.582031 596.914062 1249.558594 574.605469 C 1252.992188 544.289062 1246.125 516.257812 1215.527344 500.242188 C 1208.949219 471.925781 1191.503906 444.46875 1161.1875 439.605469 C 1160.617188 439.605469 1160.332031 439.605469 1160.046875 439.605469 C 1153.46875 416.726562 1140.3125 396.703125 1114.859375 391.84375 C 1114.574219 380.6875 1112.570312 369.820312 1106.851562 360.382812 C 1098.558594 346.652344 1082.542969 338.929688 1067.101562 344.363281 C 1061.09375 261.421875 1030.78125 179.335938 969.007812 121.5625 C 899.515625 56.351562 800.5625 25.746094 706.761719 41.476562 C 706.761719 41.476562 706.761719 41.476562 706.472656 41.476562 C 652.710938 47.484375 598.371094 47.769531 544.605469 45.195312 C 492.84375 42.621094 439.9375 40.046875 389.605469 28.035156 C 348.136719 18.023438 302.664062 0.00390625 259.480469 4.582031 C 246.039062 6.011719 232.3125 11.160156 226.59375 24.316406 C 218.011719 44.050781 233.457031 62.070312 237.460938 80.375 C 241.464844 98.109375 232.882812 115.269531 212.007812 106.972656 C 201.425781 102.683594 193.417969 94.390625 183.410156 89.242188 C 171.683594 83.234375 154.808594 79.230469 145.085938 90.957031 C 133.933594 104.398438 142.226562 126.136719 145.945312 140.722656 C 151.378906 162.746094 157.671875 184.484375 164.535156 206.21875 C 192.273438 292.023438 231.453125 374.683594 281.5 449.902344 C 336.695312 533.132812 405.332031 607.496094 486.550781 665.84375 C 557.191406 725.621094 644.414062 764.804688 735.929688 778.246094 C 783.117188 785.109375 833.738281 786.828125 880.636719 776.816406 C 883.785156 776.246094 886.929688 775.386719 890.074219 774.527344 C 890.074219 775.101562 890.363281 775.957031 890.933594 776.53125 C 910.382812 799.410156 943.269531 802.558594 970.152344 790.257812 Z M 1296.175781 683.574219 C 1290.167969 703.882812 1281.304688 723.617188 1269.863281 741.636719 C 1260.140625 742.207031 1250.417969 742.78125 1240.691406 743.351562 C 1250.988281 727.90625 1258.996094 711.03125 1264.714844 697.875 C 1268.71875 688.722656 1271.867188 679.285156 1274.152344 669.273438 C 1282.445312 672.992188 1289.023438 678.140625 1296.175781 683.574219 Z M 1267.574219 660.121094 C 1266.71875 661.265625 1266.433594 662.984375 1266.71875 664.414062 C 1264.714844 673.851562 1261.855469 683.003906 1258.136719 691.871094 C 1244.984375 722.761719 1215.8125 784.539062 1174.058594 775.101562 C 1182.636719 763.085938 1188.070312 748.785156 1193.503906 735.058594 C 1201.226562 715.609375 1208.664062 696.160156 1216.382812 676.710938 C 1225.820312 652.402344 1242.121094 617.792969 1248.128906 584.617188 C 1267.863281 604.921875 1272.152344 632.953125 1267.574219 660.121094 Z M 1212.09375 664.128906 C 1201.226562 691.585938 1191.21875 719.613281 1179.492188 746.785156 C 1168.910156 771.382812 1143.171875 805.988281 1113.429688 787.683594 C 1124.011719 781.964844 1133.734375 773.671875 1141.171875 763.945312 C 1167.195312 731.054688 1176.347656 685.578125 1189.214844 646.679688 C 1202.65625 604.921875 1221.816406 560.304688 1217.8125 515.6875 C 1217.8125 514.257812 1217.527344 512.828125 1217.242188 511.394531 C 1267.003906 544.574219 1228.683594 621.796875 1212.09375 664.128906 Z M 1209.808594 529.414062 C 1209.234375 566.882812 1194.078125 603.492188 1182.636719 638.957031 C 1171.484375 672.992188 1163.191406 709.890625 1145.746094 741.351562 C 1128.585938 772.527344 1093.125 800.554688 1057.378906 783.679688 C 1064.242188 778.816406 1070.816406 772.8125 1076.539062 766.519531 C 1107.710938 730.769531 1122.582031 679.285156 1137.453125 635.238281 C 1154.039062 586.332031 1166.625 534.847656 1165.765625 482.792969 C 1165.480469 471.925781 1164.621094 459.914062 1162.332031 448.472656 C 1197.222656 455.625 1210.378906 497.09375 1209.808594 529.414062 Z M 1156.328125 506.535156 C 1153.753906 549.722656 1142.601562 591.765625 1128.875 632.664062 C 1116.003906 670.992188 1103.132812 713.035156 1080.253906 747.070312 C 1058.234375 779.675781 1016.765625 805.703125 979.015625 785.683594 C 1012.191406 765.375 1028.492188 727.90625 1042.792969 693.300781 C 1078.253906 607.78125 1104.851562 517.6875 1112.570312 425.019531 C 1113.144531 417.296875 1114.289062 408.71875 1114.574219 400.421875 C 1158.617188 409.289062 1158.328125 471.070312 1156.328125 506.535156 Z M 244.609375 76.941406 C 259.765625 90.386719 278.640625 97.25 298.089844 102.96875 C 292.941406 105.542969 288.652344 109.835938 285.792969 115.269531 C 283.789062 118.988281 289.507812 122.132812 291.226562 118.414062 C 294.65625 111.835938 301.234375 106.972656 308.671875 106.117188 C 326.972656 111.265625 345.277344 116.699219 361.003906 126.996094 C 362.148438 127.851562 363.292969 128.710938 364.4375 129.28125 C 354.140625 133.574219 345.847656 141.007812 340.128906 150.734375 C 338.125 154.453125 343.558594 157.597656 345.5625 153.878906 C 351.28125 144.15625 360.148438 137.292969 370.730469 133.859375 C 390.175781 148.730469 405.617188 168.179688 419.632812 188.773438 C 408.480469 189.632812 398.183594 195.925781 392.75 206.21875 C 390.746094 209.9375 396.46875 213.085938 398.183594 209.367188 C 403.332031 199.929688 413.339844 194.207031 423.921875 195.066406 C 434.503906 210.796875 444.796875 226.527344 456.238281 241.113281 C 460.8125 247.121094 465.960938 252.839844 471.109375 258.5625 C 464.53125 260.277344 458.8125 264.28125 454.523438 270 C 451.949219 273.433594 457.667969 276.578125 459.957031 273.148438 C 463.671875 268 469.679688 264.566406 475.972656 263.996094 C 496.277344 284.585938 519.15625 301.75 543.175781 318.050781 C 539.460938 319.765625 535.742188 321.769531 532.308594 323.484375 C 528.59375 325.203125 531.738281 330.921875 535.457031 328.917969 C 540.03125 326.632812 544.605469 324.34375 549.183594 322.054688 C 558.621094 328.347656 568.34375 334.640625 578.066406 340.933594 C 584.359375 344.9375 590.652344 349.226562 596.941406 353.515625 C 591.507812 354.660156 586.648438 357.234375 582.355469 360.953125 C 579.210938 363.8125 583.789062 368.390625 586.933594 365.53125 C 592.082031 360.953125 598.371094 358.953125 605.234375 359.238281 C 623.539062 372.109375 640.699219 386.121094 656.714844 401.28125 C 648.417969 402.425781 640.699219 405.855469 633.835938 411.292969 C 630.6875 413.867188 635.265625 418.441406 638.410156 415.867188 C 645.558594 410.148438 653.851562 407.289062 662.71875 407 C 676.160156 420.730469 688.457031 435.316406 699.609375 451.90625 C 692.460938 451.046875 685.027344 452.476562 678.449219 456.480469 C 675.015625 458.769531 678.160156 464.203125 681.59375 461.914062 C 688.742188 457.625 696.75 456.769531 704.472656 459.628906 C 718.484375 481.9375 729.351562 505.960938 737.648438 530.558594 C 732.214844 529.414062 726.78125 530.273438 722.203125 533.417969 C 718.773438 535.707031 721.917969 541.140625 725.347656 538.851562 C 729.640625 536.277344 734.785156 535.421875 739.363281 537.710938 C 739.648438 537.710938 739.648438 537.996094 739.933594 537.996094 C 747.941406 564.59375 752.519531 592.335938 753.660156 620.367188 C 730.496094 593.769531 694.75 583.757812 663.003906 569.457031 C 614.960938 547.71875 578.925781 507.105469 541.460938 470.78125 C 463.101562 394.988281 383.597656 320.054688 310.386719 239.398438 C 273.496094 198.785156 238.316406 157.027344 206 112.980469 C 216.296875 117.554688 228.023438 119.558594 237.460938 111.550781 C 248.898438 102.96875 248.328125 90.386719 244.609375 76.941406 Z M 766.816406 772.527344 C 662.148438 763.945312 561.195312 720.757812 482.835938 650.96875 C 481.976562 650.113281 480.832031 649.828125 479.6875 649.828125 C 344.132812 548.578125 245.179688 402.140625 186.554688 244.261719 C 171.683594 204.503906 159.386719 163.890625 149.949219 122.417969 C 148.519531 116.414062 145.660156 107.261719 148.234375 101.539062 C 152.238281 92.671875 159.957031 89.8125 168.824219 92.101562 C 175.972656 93.816406 181.980469 97.535156 187.699219 101.824219 C 199.425781 118.414062 211.722656 134.71875 224.304688 151.019531 C 218.011719 151.304688 211.722656 153.878906 207.429688 158.742188 C 204.570312 161.886719 209.148438 166.464844 212.007812 163.320312 C 216.582031 158.171875 223.445312 156.167969 230.023438 158.171875 C 255.476562 190.488281 282.359375 221.664062 310.386719 251.984375 C 300.664062 252.269531 290.9375 257.988281 286.933594 267.140625 C 285.21875 270.859375 290.652344 274.292969 292.367188 270.289062 C 296.945312 260.5625 307.527344 256.273438 317.25 259.417969 C 326.402344 269.144531 335.550781 278.867188 344.703125 288.59375 C 336.695312 288.59375 328.976562 292.882812 324.972656 300.320312 C 322.96875 304.035156 328.6875 307.183594 330.40625 303.464844 C 333.550781 297.457031 340.128906 293.742188 346.992188 294.882812 C 348.136719 295.171875 349.28125 294.597656 349.851562 294.027344 C 364.4375 309.183594 379.023438 324.058594 393.894531 338.929688 C 419.632812 364.671875 445.65625 390.125 471.96875 415.296875 C 461.671875 415.582031 452.234375 423.019531 450.519531 434.171875 C 449.945312 438.175781 456.238281 439.894531 456.808594 435.890625 C 458.527344 424.734375 468.820312 418.726562 479.117188 423.019531 C 479.402344 423.019531 479.6875 423.304688 479.972656 423.304688 C 490.554688 433.601562 501.136719 443.609375 511.71875 453.90625 C 517.722656 459.914062 523.730469 465.921875 530.023438 471.925781 C 523.445312 473.070312 517.722656 477.359375 514.578125 483.367188 C 512.578125 487.085938 518.296875 490.230469 520.011719 486.511719 C 522.871094 481.078125 528.304688 477.648438 534.597656 477.933594 C 534.882812 477.933594 535.457031 477.933594 535.742188 477.648438 C 564.625 506.820312 594.082031 536.851562 627.542969 559.730469 C 628.6875 560.589844 629.832031 561.164062 630.972656 562.019531 C 621.824219 566.3125 615.53125 575.75 615.53125 586.046875 C 615.53125 590.050781 621.824219 590.050781 622.109375 586.046875 C 622.109375 576.894531 628.402344 568.886719 637.550781 566.597656 C 637.839844 566.597656 638.125 566.3125 638.410156 566.3125 C 649.277344 572.316406 660.714844 577.179688 672.726562 582.042969 C 665.007812 584.617188 658.429688 589.765625 653.851562 596.628906 C 651.566406 600.058594 657.285156 603.492188 659.285156 599.773438 C 664.433594 591.765625 672.726562 586.902344 682.453125 586.332031 C 682.738281 586.332031 683.023438 586.332031 683.308594 586.046875 C 693.605469 590.335938 704.1875 594.625 713.910156 599.773438 C 707.617188 600.632812 701.898438 603.207031 697.324219 607.78125 C 694.175781 610.644531 698.753906 615.21875 701.898438 612.359375 C 707.332031 607.210938 714.480469 604.921875 721.917969 606.066406 C 722.773438 606.066406 723.632812 606.066406 724.207031 605.496094 C 736.503906 613.21875 747.371094 622.65625 755.378906 635.238281 C 757.664062 638.671875 763.386719 637.527344 763.386719 632.953125 C 763.957031 523.695312 710.191406 422.445312 622.109375 358.664062 C 601.230469 343.507812 578.925781 329.777344 557.191406 315.761719 C 556.90625 314.046875 555.1875 312.332031 552.902344 312.902344 C 527.734375 296.316406 503.425781 278.867188 482.546875 257.128906 C 447.085938 220.234375 426.210938 172.183594 389.03125 137.003906 C 385.3125 133.574219 381.597656 130.425781 377.878906 127.28125 C 377.304688 126.421875 376.734375 125.851562 375.589844 125.566406 C 359.574219 113.839844 341.84375 105.828125 322.398438 100.109375 C 294.085938 91.527344 263.769531 85.808594 243.464844 62.640625 C 242.320312 61.496094 241.175781 61.210938 240.035156 61.210938 C 232.597656 40.332031 225.449219 20.3125 251.472656 13.160156 C 272.351562 7.441406 297.230469 13.160156 317.535156 17.453125 C 338.699219 21.742188 359.289062 27.75 380.453125 32.898438 C 430.5 45.480469 482.546875 48.339844 534.027344 51.488281 C 589.21875 54.632812 644.414062 54.632812 699.609375 49.199219 C 700.46875 49.484375 701.328125 49.484375 702.183594 49.484375 C 785.121094 33.46875 872.917969 55.777344 940.125 106.6875 C 1015.910156 164.460938 1053.945312 255.699219 1059.09375 349.226562 C 1065.097656 452.191406 1033.066406 552.867188 991.601562 646.109375 C 972.152344 689.867188 951.847656 740.492188 904.089844 759.65625 C 861.765625 777.101562 810.859375 775.957031 766.816406 772.527344 Z M 980.734375 689.582031 C 1027.921875 594.339844 1066.527344 488.515625 1067.957031 381.261719 C 1067.957031 371.535156 1067.957031 361.8125 1067.386719 352.371094 C 1067.957031 352.371094 1068.53125 352.371094 1069.101562 352.085938 C 1101.703125 340.933594 1106.566406 384.976562 1105.421875 406.144531 C 1103.992188 430.453125 1101.132812 454.765625 1097.128906 479.078125 C 1089.40625 525.410156 1077.394531 571.171875 1062.523438 615.789062 C 1048.226562 658.691406 1033.355469 705.597656 1008.1875 743.925781 C 985.308594 779.105469 932.402344 809.992188 898.082031 771.097656 C 936.976562 757.367188 961.574219 727.90625 980.734375 689.582031 Z M 980.734375 689.582031 " fill-opacity="1" fill-rule="nonzero"/><path fill="#000000" d="M 791.125 446.183594 C 761.667969 379.542969 732.5 312.617188 703.042969 245.976562 C 681.023438 196.210938 652.421875 138.148438 592.652344 128.710938 C 590.078125 128.425781 588.648438 132.429688 591.507812 132.714844 C 656.425781 143.011719 682.738281 210.222656 706.1875 263.421875 C 733.355469 324.914062 760.527344 386.695312 787.695312 448.1875 C 788.550781 450.761719 792.269531 448.757812 791.125 446.183594 Z M 791.125 446.183594 " fill-opacity="1" fill-rule="nonzero"/><path fill="#000000" d="M 777.683594 714.75 C 689.027344 753.363281 624.96875 643.535156 557.191406 608.070312 C 554.617188 606.925781 552.613281 610.355469 554.902344 611.785156 C 624.109375 648.109375 688.457031 758.511719 779.972656 718.46875 C 782.261719 717.324219 779.972656 713.605469 777.683594 714.75 Z M 777.683594 714.75 " fill-opacity="1" fill-rule="nonzero"/><path fill="#000000" d="M 571.777344 589.191406 C 552.042969 580.324219 536.027344 565.738281 525.445312 546.863281 C 524.015625 544.574219 520.296875 546.574219 521.726562 549.148438 C 532.882812 568.597656 549.183594 583.757812 569.488281 592.910156 C 572.0625 594.054688 574.0625 590.335938 571.777344 589.191406 Z M 571.777344 589.191406 " fill-opacity="1" fill-rule="nonzero"/><path fill="#000000" d="M 482.546875 523.980469 C 482.835938 526.839844 487.125 525.410156 486.550781 522.835938 C 478.832031 469.925781 421.632812 453.90625 381.308594 432.171875 C 328.6875 403.855469 308.382812 350.085938 290.652344 296.316406 C 289.796875 293.742188 285.792969 294.882812 286.648438 297.457031 C 301.519531 342.648438 318.109375 391.84375 357.289062 421.875 C 398.46875 453.90625 473.683594 462.488281 482.546875 523.980469 Z M 482.546875 523.980469 " fill-opacity="1" fill-rule="nonzero"/><path fill="#000000" d="M 1013.050781 327.203125 C 1040.503906 398.707031 1026.492188 470.78125 986.738281 533.992188 C 952.136719 588.90625 905.234375 644.390625 912.382812 713.894531 C 912.667969 716.753906 916.957031 716.753906 916.671875 713.894531 C 908.664062 636.097656 968.722656 577.75 1003.324219 514.542969 C 1035.355469 456.480469 1041.074219 388.410156 1017.339844 326.058594 C 1016.195312 323.484375 1011.90625 324.628906 1013.050781 327.203125 Z M 1013.050781 327.203125 " fill-opacity="1" fill-rule="nonzero"/><path fill="#000000" d="M 897.511719 678.140625 C 921.535156 627.515625 945.269531 576.605469 969.292969 525.984375 C 970.4375 523.410156 966.71875 521.40625 965.574219 523.695312 C 941.554688 574.320312 917.816406 625.230469 893.792969 675.855469 C 892.648438 678.429688 896.367188 680.714844 897.511719 678.140625 Z M 897.511719 678.140625 " fill-opacity="1" fill-rule="nonzero"/><path fill="#000000" d="M 944.699219 154.453125 C 996.460938 185.339844 1027.921875 243.117188 1026.203125 303.464844 C 1026.203125 306.324219 1030.496094 306.324219 1030.496094 303.464844 C 1032.210938 241.6875 999.894531 182.480469 946.988281 150.734375 C 944.414062 149.304688 942.125 153.023438 944.699219 154.453125 Z M 944.699219 154.453125 " fill-opacity="1" fill-rule="nonzero"/><path fill="#000000" d="M 787.980469 741.066406 C 788.265625 746.5 796.558594 746.5 796.558594 741.066406 C 796.558594 736.488281 790.554688 735.628906 788.550781 738.777344 C 787.980469 736.773438 784.546875 737.058594 784.546875 739.632812 C 784.261719 741.636719 786.835938 742.207031 787.980469 741.066406 Z M 787.980469 741.066406 " fill-opacity="1" fill-rule="nonzero"/><path fill="#000000" d="M 350.136719 166.75 C 353.285156 163.03125 356.429688 159.027344 359.574219 155.308594 C 362.148438 152.164062 357.574219 147.585938 355 150.734375 C 351.855469 154.453125 348.707031 158.457031 345.5625 162.175781 C 342.988281 165.320312 347.5625 169.898438 350.136719 166.75 Z M 350.136719 166.75 " fill-opacity="1" fill-rule="nonzero"/><path fill="#000000" d="M 892.363281 114.695312 C 892.363281 109.261719 883.785156 109.261719 883.785156 114.695312 C 883.785156 120.128906 892.363281 120.128906 892.363281 114.695312 Z M 892.363281 114.695312 " fill-opacity="1" fill-rule="nonzero"/><path fill="#000000" d="M 899.515625 147.585938 C 899.515625 153.023438 908.09375 153.023438 908.09375 147.585938 C 908.09375 142.152344 899.515625 142.152344 899.515625 147.585938 Z M 899.515625 147.585938 " fill-opacity="1" fill-rule="nonzero"/><path fill="#000000" d="M 875.203125 143.296875 C 875.203125 148.730469 883.785156 148.730469 883.785156 143.296875 C 883.785156 137.863281 875.203125 137.863281 875.203125 143.296875 Z M 875.203125 143.296875 " fill-opacity="1" fill-rule="nonzero"/><path fill="#000000" d="M 856.617188 143.296875 C 856.617188 148.730469 865.195312 148.730469 865.195312 143.296875 C 865.195312 137.863281 856.617188 137.863281 856.617188 143.296875 Z M 856.617188 143.296875 " fill-opacity="1" fill-rule="nonzero"/><path fill="#000000" d="M 868.054688 121.847656 C 868.054688 116.414062 859.476562 116.414062 859.476562 121.847656 C 859.476562 127.28125 868.054688 127.28125 868.054688 121.847656 Z M 868.054688 121.847656 " fill-opacity="1" fill-rule="nonzero"/><path fill="#000000" d="M 900.945312 254.84375 C 900.945312 260.277344 909.523438 260.277344 909.523438 254.84375 C 909.523438 249.410156 900.945312 249.410156 900.945312 254.84375 Z M 900.945312 254.84375 " fill-opacity="1" fill-rule="nonzero"/><path fill="#000000" d="M 902.375 294.882812 C 902.375 289.449219 893.792969 289.449219 893.792969 294.882812 C 893.792969 300.320312 902.375 300.320312 902.375 294.882812 Z M 902.375 294.882812 " fill-opacity="1" fill-rule="nonzero"/><path fill="#000000" d="M 925.253906 292.023438 C 925.253906 286.589844 916.671875 286.589844 916.671875 292.023438 C 916.671875 297.457031 925.253906 297.457031 925.253906 292.023438 Z M 925.253906 292.023438 " fill-opacity="1" fill-rule="nonzero"/><path fill="#000000" d="M 953.851562 322.054688 C 953.851562 327.488281 962.429688 327.488281 962.429688 322.054688 C 962.429688 316.621094 953.851562 316.621094 953.851562 322.054688 Z M 953.851562 322.054688 " fill-opacity="1" fill-rule="nonzero"/><path fill="#000000" d="M 930.972656 342.078125 C 930.972656 347.511719 939.550781 347.511719 939.550781 342.078125 C 939.550781 336.640625 930.972656 336.640625 930.972656 342.078125 Z M 930.972656 342.078125 " fill-opacity="1" fill-rule="nonzero"/><path fill="#000000" d="M 906.664062 366.386719 C 906.664062 371.820312 915.242188 371.820312 915.242188 366.386719 C 915.242188 360.953125 906.664062 360.953125 906.664062 366.386719 Z M 906.664062 366.386719 " fill-opacity="1" fill-rule="nonzero"/><path fill="#000000" d="M 885.214844 333.496094 C 885.214844 338.929688 893.792969 338.929688 893.792969 333.496094 C 893.792969 328.0625 885.214844 328.0625 885.214844 333.496094 Z M 885.214844 333.496094 " fill-opacity="1" fill-rule="nonzero"/><path fill="#000000" d="M 879.496094 274.863281 C 879.496094 280.296875 888.074219 280.296875 888.074219 274.863281 C 888.074219 269.429688 879.496094 269.429688 879.496094 274.863281 Z M 879.496094 274.863281 " fill-opacity="1" fill-rule="nonzero"/><path fill="#000000" d="M 855.1875 294.882812 C 855.1875 300.320312 863.765625 300.320312 863.765625 294.882812 C 863.765625 289.449219 855.1875 289.449219 855.1875 294.882812 Z M 855.1875 294.882812 " fill-opacity="1" fill-rule="nonzero"/><path fill="#000000" d="M 875.203125 354.945312 C 875.203125 360.382812 883.785156 360.382812 883.785156 354.945312 C 883.785156 349.511719 875.203125 349.511719 875.203125 354.945312 Z M 875.203125 354.945312 " fill-opacity="1" fill-rule="nonzero"/><path fill="#000000" d="M 922.390625 323.484375 C 922.390625 318.050781 913.8125 318.050781 913.8125 323.484375 C 913.8125 328.921875 922.390625 328.921875 922.390625 323.484375 Z M 922.390625 323.484375 " fill-opacity="1" fill-rule="nonzero"/><path fill="#000000" d="M 979.589844 342.078125 C 979.589844 336.640625 971.011719 336.640625 971.011719 342.078125 C 971.011719 347.511719 979.589844 347.511719 979.589844 342.078125 Z M 979.589844 342.078125 " fill-opacity="1" fill-rule="nonzero"/><path fill="#000000" d="M 869.484375 716.753906 C 869.484375 722.1875 878.066406 722.1875 878.066406 716.753906 C 878.066406 711.320312 869.484375 711.320312 869.484375 716.753906 Z M 869.484375 716.753906 " fill-opacity="1" fill-rule="nonzero"/><path fill="#000000" d="M 856.617188 741.066406 C 856.617188 746.5 865.195312 746.5 865.195312 741.066406 C 865.195312 735.628906 856.617188 735.628906 856.617188 741.066406 Z M 856.617188 741.066406 " fill-opacity="1" fill-rule="nonzero"/><path fill="#000000" d="M 843.746094 731.054688 C 843.746094 725.621094 835.167969 725.621094 835.167969 731.054688 C 835.167969 736.488281 843.746094 736.488281 843.746094 731.054688 Z M 843.746094 731.054688 " fill-opacity="1" fill-rule="nonzero"/><path fill="#000000" d="M 818.007812 752.503906 C 818.007812 757.9375 826.585938 757.9375 826.585938 752.503906 C 826.585938 747.070312 818.007812 747.070312 818.007812 752.503906 Z M 818.007812 752.503906 " fill-opacity="1" fill-rule="nonzero"/><path fill="#000000" d="M 836.597656 711.035156 C 836.597656 716.46875 845.175781 716.46875 845.175781 711.035156 C 845.175781 705.597656 836.597656 705.597656 836.597656 711.035156 Z M 836.597656 711.035156 " fill-opacity="1" fill-rule="nonzero"/><path fill="#000000" d="M 775.109375 756.796875 C 775.109375 751.359375 766.53125 751.359375 766.53125 756.796875 C 766.53125 762.230469 775.109375 762.230469 775.109375 756.796875 Z M 775.109375 756.796875 " fill-opacity="1" fill-rule="nonzero"/><path fill="#000000" d="M 740.792969 752.503906 C 740.792969 747.070312 732.214844 747.070312 732.214844 752.503906 C 732.214844 757.9375 740.792969 757.9375 740.792969 752.503906 Z M 740.792969 752.503906 " fill-opacity="1" fill-rule="nonzero"/><path fill="#000000" d="M 767.960938 743.925781 C 767.960938 738.492188 759.382812 738.492188 759.382812 743.925781 C 759.382812 749.359375 767.960938 749.359375 767.960938 743.925781 Z M 767.960938 743.925781 " fill-opacity="1" fill-rule="nonzero"/><path fill="#000000" d="M 710.765625 745.355469 C 710.765625 739.921875 702.183594 739.921875 702.183594 745.355469 C 702.183594 750.789062 710.765625 750.789062 710.765625 745.355469 Z M 710.765625 745.355469 " fill-opacity="1" fill-rule="nonzero"/><path fill="#000000" d="M 579.210938 249.121094 C 579.210938 243.6875 570.632812 243.6875 570.632812 249.121094 C 570.632812 254.554688 579.210938 254.554688 579.210938 249.121094 Z M 579.210938 249.121094 " fill-opacity="1" fill-rule="nonzero"/><path fill="#000000" d="M 587.789062 200.5 C 587.789062 195.066406 579.210938 195.066406 579.210938 200.5 C 579.210938 205.933594 587.789062 205.933594 587.789062 200.5 Z M 587.789062 200.5 " fill-opacity="1" fill-rule="nonzero"/><path fill="#000000" d="M 582.070312 161.886719 C 582.070312 156.453125 573.492188 156.453125 573.492188 161.886719 C 573.492188 167.324219 582.070312 167.324219 582.070312 161.886719 Z M 582.070312 161.886719 " fill-opacity="1" fill-rule="nonzero"/><path fill="#000000" d="M 604.949219 194.78125 C 604.949219 189.34375 596.371094 189.34375 596.371094 194.78125 C 596.371094 200.214844 604.949219 200.214844 604.949219 194.78125 Z M 604.949219 194.78125 " fill-opacity="1" fill-rule="nonzero"/><path fill="#000000" d="M 560.621094 190.488281 C 560.621094 185.054688 552.042969 185.054688 552.042969 190.488281 C 552.042969 195.925781 560.621094 195.925781 560.621094 190.488281 Z M 560.621094 190.488281 " fill-opacity="1" fill-rule="nonzero"/><path fill="#000000" d="M 562.050781 164.75 C 562.050781 159.3125 553.472656 159.3125 553.472656 164.75 C 553.472656 170.183594 562.050781 170.183594 562.050781 164.75 Z M 562.050781 164.75 " fill-opacity="1" fill-rule="nonzero"/><path fill="#000000" d="M 570.632812 127.566406 C 570.632812 122.132812 562.050781 122.132812 562.050781 127.566406 C 562.050781 133 570.632812 133 570.632812 127.566406 Z M 570.632812 127.566406 " fill-opacity="1" fill-rule="nonzero"/><path fill="#000000" d="M 563.480469 96.105469 C 563.480469 90.671875 554.902344 90.671875 554.902344 96.105469 C 554.902344 101.539062 563.480469 101.539062 563.480469 96.105469 Z M 563.480469 96.105469 " fill-opacity="1" fill-rule="nonzero"/><path fill="#000000" d="M 529.164062 94.675781 C 529.164062 89.242188 520.585938 89.242188 520.585938 94.675781 C 520.585938 100.109375 529.164062 100.109375 529.164062 94.675781 Z M 529.164062 94.675781 " fill-opacity="1" fill-rule="nonzero"/><path fill="#000000" d="M 534.882812 130.425781 C 534.882812 124.992188 526.304688 124.992188 526.304688 130.425781 C 526.304688 135.859375 534.882812 135.859375 534.882812 130.425781 Z M 534.882812 130.425781 " fill-opacity="1" fill-rule="nonzero"/><path fill="#000000" d="M 399.042969 503.675781 C 399.042969 498.238281 390.460938 498.238281 390.460938 503.675781 C 390.460938 509.109375 399.042969 509.109375 399.042969 503.675781 Z M 399.042969 503.675781 " fill-opacity="1" fill-rule="nonzero"/><path fill="#000000" d="M 417.628906 543.714844 C 417.628906 538.28125 409.050781 538.28125 409.050781 543.714844 C 409.050781 549.148438 417.628906 549.148438 417.628906 543.714844 Z M 417.628906 543.714844 " fill-opacity="1" fill-rule="nonzero"/><path fill="#000000" d="M 399.042969 555.15625 C 399.042969 549.722656 390.460938 549.722656 390.460938 555.15625 C 390.460938 560.589844 399.042969 560.589844 399.042969 555.15625 Z M 399.042969 555.15625 " fill-opacity="1" fill-rule="nonzero"/><path fill="#000000" d="M 389.03125 523.695312 C 389.03125 518.261719 380.453125 518.261719 380.453125 523.695312 C 380.453125 529.128906 389.03125 529.128906 389.03125 523.695312 Z M 389.03125 523.695312 " fill-opacity="1" fill-rule="nonzero"/><path fill="#000000" d="M 373.300781 496.523438 C 373.300781 491.089844 364.722656 491.089844 364.722656 496.523438 C 364.722656 501.957031 373.300781 501.957031 373.300781 496.523438 Z M 373.300781 496.523438 " fill-opacity="1" fill-rule="nonzero"/><path fill="#000000" d="M 374.734375 522.265625 C 374.734375 516.832031 366.152344 516.832031 366.152344 522.265625 C 366.152344 527.699219 374.734375 527.699219 374.734375 522.265625 Z M 374.734375 522.265625 " fill-opacity="1" fill-rule="nonzero"/><path fill="#000000" d="M 348.992188 479.363281 C 348.992188 473.929688 340.414062 473.929688 340.414062 479.363281 C 340.414062 484.796875 348.992188 484.796875 348.992188 479.363281 Z M 348.992188 479.363281 " fill-opacity="1" fill-rule="nonzero"/><path fill="#000000" d="M 1269.863281 711.035156 C 1269.863281 716.46875 1278.441406 716.46875 1278.441406 711.035156 C 1278.441406 705.597656 1269.863281 705.597656 1269.863281 711.035156 Z M 1269.863281 711.035156 " fill-opacity="1" fill-rule="nonzero"/><path fill="#000000" d="M 1265.574219 648.109375 C 1265.574219 642.675781 1256.996094 642.675781 1256.996094 648.109375 C 1256.996094 653.542969 1265.574219 653.542969 1265.574219 648.109375 Z M 1265.574219 648.109375 " fill-opacity="1" fill-rule="nonzero"/><path fill="#000000" d="M 1256.996094 628.089844 C 1256.996094 622.65625 1248.414062 622.65625 1248.414062 628.089844 C 1248.414062 633.523438 1256.996094 633.523438 1256.996094 628.089844 Z M 1256.996094 628.089844 " fill-opacity="1" fill-rule="nonzero"/><path fill="#000000" d="M 1231.253906 706.742188 C 1231.253906 712.175781 1239.835938 712.175781 1239.835938 706.742188 C 1239.835938 701.308594 1231.253906 701.308594 1231.253906 706.742188 Z M 1231.253906 706.742188 " fill-opacity="1" fill-rule="nonzero"/><path fill="#000000" d="M 1222.675781 586.617188 C 1222.675781 592.050781 1231.253906 592.050781 1231.253906 586.617188 C 1231.253906 581.183594 1222.675781 581.183594 1222.675781 586.617188 Z M 1222.675781 586.617188 " fill-opacity="1" fill-rule="nonzero"/><path fill="#000000" d="M 1221.246094 568.027344 C 1221.246094 573.460938 1229.824219 573.460938 1229.824219 568.027344 C 1229.824219 562.59375 1221.246094 562.59375 1221.246094 568.027344 Z M 1221.246094 568.027344 " fill-opacity="1" fill-rule="nonzero"/><path fill="#000000" d="M 1229.824219 552.296875 C 1229.824219 557.730469 1238.40625 557.730469 1238.40625 552.296875 C 1238.40625 546.863281 1229.824219 546.863281 1229.824219 552.296875 Z M 1229.824219 552.296875 " fill-opacity="1" fill-rule="nonzero"/><path fill="#000000" d="M 1181.207031 509.394531 C 1181.207031 514.828125 1189.789062 514.828125 1189.789062 509.394531 C 1189.789062 503.960938 1181.207031 503.960938 1181.207031 509.394531 Z M 1181.207031 509.394531 " fill-opacity="1" fill-rule="nonzero"/><path fill="#000000" d="M 1191.21875 497.953125 C 1191.21875 503.386719 1199.796875 503.386719 1199.796875 497.953125 C 1199.796875 492.519531 1191.21875 492.519531 1191.21875 497.953125 Z M 1191.21875 497.953125 " fill-opacity="1" fill-rule="nonzero"/><path fill="#000000" d="M 1175.488281 490.804688 C 1175.488281 496.238281 1184.066406 496.238281 1184.066406 490.804688 C 1184.066406 485.367188 1175.488281 485.367188 1175.488281 490.804688 Z M 1175.488281 490.804688 " fill-opacity="1" fill-rule="nonzero"/><path fill="#000000" d="M 1118.292969 517.972656 C 1118.292969 523.410156 1126.871094 523.410156 1126.871094 517.972656 C 1126.871094 512.539062 1118.292969 512.539062 1118.292969 517.972656 Z M 1118.292969 517.972656 " fill-opacity="1" fill-rule="nonzero"/><path fill="#000000" d="M 1118.292969 540.855469 C 1118.292969 546.289062 1126.871094 546.289062 1126.871094 540.855469 C 1126.871094 535.421875 1118.292969 535.421875 1118.292969 540.855469 Z M 1118.292969 540.855469 " fill-opacity="1" fill-rule="nonzero"/><path fill="#000000" d="M 1132.589844 515.113281 C 1132.589844 520.546875 1141.171875 520.546875 1141.171875 515.113281 C 1141.171875 509.679688 1132.589844 509.679688 1132.589844 515.113281 Z M 1132.589844 515.113281 " fill-opacity="1" fill-rule="nonzero"/><path fill="#000000" d="M 1106.851562 537.996094 C 1106.851562 543.429688 1115.433594 543.429688 1115.433594 537.996094 C 1115.433594 532.5625 1106.851562 532.5625 1106.851562 537.996094 Z M 1106.851562 537.996094 " fill-opacity="1" fill-rule="nonzero"/><path fill="#000000" d="M 1119.722656 566.597656 C 1119.722656 572.03125 1128.300781 572.03125 1128.300781 566.597656 C 1128.300781 561.164062 1119.722656 561.164062 1119.722656 566.597656 Z M 1119.722656 566.597656 " fill-opacity="1" fill-rule="nonzero"/><path fill="#000000" d="M 1065.382812 575.175781 C 1065.382812 569.742188 1056.804688 569.742188 1056.804688 575.175781 C 1056.804688 580.609375 1065.382812 580.609375 1065.382812 575.175781 Z M 1065.382812 575.175781 " fill-opacity="1" fill-rule="nonzero"/><path fill="#000000" d="M 1045.367188 592.335938 C 1045.367188 586.902344 1036.785156 586.902344 1036.785156 592.335938 C 1036.785156 597.773438 1045.367188 597.773438 1045.367188 592.335938 Z M 1045.367188 592.335938 " fill-opacity="1" fill-rule="nonzero"/><path fill="#000000" d="M 1045.367188 618.078125 C 1045.367188 612.644531 1036.785156 612.644531 1036.785156 618.078125 C 1036.785156 623.511719 1045.367188 623.511719 1045.367188 618.078125 Z M 1045.367188 618.078125 " fill-opacity="1" fill-rule="nonzero"/><path fill="#000000" d="M 1061.09375 602.347656 C 1061.09375 596.914062 1052.515625 596.914062 1052.515625 602.347656 C 1052.515625 607.78125 1061.09375 607.78125 1061.09375 602.347656 Z M 1061.09375 602.347656 " fill-opacity="1" fill-rule="nonzero"/></svg>