<svg xmlns="http://www.w3.org/2000/svg" xmlns:xlink="http://www.w3.org/1999/xlink" width="1920" zoomAndPan="magnify" viewBox="0 0 1440 809.999993" height="1080" preserveAspectRatio="xMidYMid meet" version="1.0"><path fill="#000000" d="M 1239.183594 569.144531 C 1221.402344 531.152344 1204.972656 492.5 1187.390625 454.382812 C 1163.753906 400.109375 1143.78125 344.292969 1117.617188 291.140625 C 1093.152344 232.5625 1062.464844 176.40625 1017.355469 131.070312 C 993.121094 105.109375 966.023438 81.765625 936.515625 62.300781 C 935.351562 61.503906 934.203125 60.675781 933.007812 59.910156 C 932.332031 59.496094 931.640625 59.113281 930.96875 58.699219 C 897.015625 37.089844 859.953125 20.628906 820.269531 11.371094 C 765.273438 3.402344 707.59375 0.015625 654.082031 17.761719 C 622.355469 28.675781 587.285156 39.601562 564.261719 65.273438 C 543.8125 51.328125 519.488281 42.300781 495.195312 37.917969 C 450.34375 32.382812 383.238281 46.421875 378.195312 78.226562 C 368.613281 74.761719 357.824219 74.347656 347.769531 74.285156 C 332.65625 73.917969 316.714844 78.53125 306.628906 90.347656 C 304.757812 92.648438 303.226562 94.992188 301.984375 97.414062 C 289.015625 87.359375 267.589844 94.761719 252.519531 98.609375 C 237.851562 102.257812 222.859375 107.332031 210.492188 116.097656 C 210.324219 116.097656 210.183594 116.097656 210.015625 116.082031 C 210.03125 113.980469 208.851562 111.882812 205.96875 109.890625 C 200.375 108.757812 194.75 111.5625 189.1875 112.113281 C 181.890625 113.261719 173.859375 113.597656 167.972656 118.625 C 155.617188 128.695312 160.492188 147.667969 170.761719 157.433594 C 178.914062 165.324219 189.597656 170.183594 197.617188 178.167969 C 199.316406 195.566406 214.96875 205.296875 221.878906 219.917969 C 227.320312 237.683594 230.21875 256.546875 242.449219 271.355469 C 250.34375 283.460938 261.535156 293.667969 275.726562 296.8125 C 276.417969 299.570312 277.183594 302.3125 278.132812 304.996094 C 284.617188 322.835938 294.183594 339.863281 308.757812 352.339844 C 315.949219 358.929688 323.65625 364.785156 331.828125 370.101562 C 339.90625 375.144531 348.519531 380.507812 357.730469 383.207031 C 359.082031 424.25 373.320312 465.125 408.726562 488.238281 C 426.570312 503.824219 446.679688 515.933594 468.570312 524.898438 C 495.53125 541.023438 527.136719 547.058594 558.296875 544.253906 C 551.984375 610.160156 581.964844 682.378906 633.40625 724.125 C 650.863281 734.839844 668 746.105469 685.535156 756.695312 C 712.5 768.957031 741.117188 777.875 769.320312 786.964844 C 847.707031 806.980469 931.828125 809.953125 1011.210938 793.890625 C 1065.027344 785.355469 1113.464844 759.53125 1160.226562 732.847656 C 1185.351562 716.554688 1205.046875 693.625 1229.265625 676.167969 C 1284.554688 635.570312 1263.601562 620.550781 1239.167969 569.144531 Z M 1136.394531 413.152344 C 1145.390625 433.597656 1153.714844 454.425781 1162.066406 475.226562 C 1177.886719 514.582031 1193.84375 553.925781 1214.734375 590.742188 C 1216.789062 594.003906 1218.890625 597.238281 1221.035156 600.441406 C 1221.664062 601.378906 1222.292969 602.296875 1222.917969 603.214844 C 1224.589844 605.667969 1226.324219 608.074219 1228.070312 610.464844 C 1228.515625 611.078125 1228.972656 611.691406 1229.433594 612.304688 C 1229.402344 612.304688 1229.386719 612.289062 1229.359375 612.273438 C 1229.359375 612.273438 1229.371094 612.304688 1229.386719 612.320312 C 1229.128906 612.210938 1228.882812 612.089844 1228.636719 611.984375 C 1225.847656 610.789062 1223.074219 609.53125 1220.328125 608.210938 C 1219.761719 607.9375 1219.195312 607.644531 1218.628906 607.371094 C 1215.929688 606.035156 1213.261719 604.65625 1210.628906 603.214844 C 1210.441406 603.109375 1210.257812 603.015625 1210.074219 602.925781 C 1207.347656 601.40625 1204.679688 599.8125 1202.042969 598.175781 C 1201.476562 597.820312 1200.894531 597.46875 1200.328125 597.101562 C 1197.765625 595.476562 1195.269531 593.789062 1192.800781 592.042969 C 1192.28125 591.675781 1191.773438 591.292969 1191.253906 590.925781 C 1188.769531 589.132812 1186.332031 587.292969 1183.957031 585.359375 C 1183.847656 585.285156 1183.742188 585.191406 1183.632812 585.117188 C 1181.195312 583.140625 1178.835938 581.070312 1176.507812 578.96875 C 1176.03125 578.539062 1175.554688 578.113281 1175.082031 577.667969 C 1172.859375 575.597656 1170.683594 573.46875 1168.566406 571.277344 C 1168.121094 570.816406 1167.691406 570.355469 1167.265625 569.898438 C 1165.132812 567.628906 1163.050781 565.328125 1161.042969 562.9375 C 1160.996094 562.878906 1160.949219 562.832031 1160.902344 562.785156 C 1140.085938 540.898438 1132.960938 518.339844 1125.832031 493.003906 C 1123.59375 485.035156 1121.339844 476.789062 1118.675781 468.191406 C 1116.238281 461.003906 1113.507812 453.90625 1110.917969 446.75 C 1108.433594 439.851562 1106.089844 432.925781 1104.3125 425.796875 C 1102.089844 417.523438 1100.496094 409.121094 1099.101562 400.691406 C 1098.089844 394.65625 1097.183594 388.585938 1096.21875 382.53125 C 1095.453125 377.71875 1094.671875 372.921875 1093.765625 368.140625 C 1090.042969 347.941406 1083.050781 328.492188 1079.710938 308.214844 C 1077.210938 293.5625 1075.601562 278.726562 1071.738281 264.320312 C 1071.710938 264.226562 1071.695312 264.136719 1071.664062 264.058594 C 1070.941406 261.40625 1070.160156 258.769531 1069.363281 256.148438 C 1069.148438 255.445312 1068.933594 254.753906 1068.707031 254.050781 C 1067.863281 251.414062 1067.003906 248.792969 1066.097656 246.1875 C 1066.054688 246.035156 1065.992188 245.898438 1065.945312 245.742188 C 1065.042969 243.167969 1064.121094 240.59375 1063.1875 238.035156 C 1062.910156 237.285156 1062.636719 236.515625 1062.359375 235.765625 C 1061.5 233.46875 1060.644531 231.152344 1059.785156 228.855469 C 1058.695312 225.941406 1057.59375 223.03125 1056.519531 220.117188 C 1056.382812 219.734375 1056.242188 219.351562 1056.089844 218.96875 C 1055.800781 218.1875 1055.507812 217.421875 1055.230469 216.636719 C 1055.414062 216.960938 1055.601562 217.28125 1055.785156 217.605469 C 1075.386719 259.859375 1092.695312 303.109375 1109.832031 346.421875 C 1118.644531 368.691406 1127.394531 390.976562 1136.410156 413.152344 Z M 175.574219 145.386719 C 175.46875 145.261719 175.359375 145.125 175.253906 145.003906 C 174.914062 144.605469 174.59375 144.191406 174.316406 143.777344 C 174.242188 143.667969 174.164062 143.5625 174.085938 143.457031 C 173.75 142.949219 173.472656 142.429688 173.214844 141.90625 C 173.152344 141.785156 173.105469 141.648438 173.046875 141.507812 C 172.859375 141.078125 172.707031 140.636719 172.585938 140.191406 C 172.539062 140.039062 172.492188 139.898438 172.460938 139.746094 C 172.339844 139.179688 172.25 138.613281 172.21875 138.015625 C 172.21875 137.90625 172.21875 137.800781 172.21875 137.675781 C 172.21875 137.171875 172.234375 136.648438 172.292969 136.128906 C 172.308594 135.945312 172.339844 135.777344 172.371094 135.59375 C 172.476562 134.949219 172.632812 134.304688 172.847656 133.644531 C 172.847656 133.644531 172.847656 133.644531 172.847656 133.628906 C 173.136719 133.738281 173.460938 133.832031 173.8125 133.890625 C 173.84375 133.890625 173.871094 133.890625 173.886719 133.890625 C 174.210938 133.953125 174.546875 134 174.914062 134.03125 C 174.992188 134.03125 175.082031 134.03125 175.175781 134.03125 C 175.496094 134.058594 175.820312 134.074219 176.171875 134.074219 C 176.28125 134.074219 176.417969 134.074219 176.523438 134.074219 C 176.863281 134.074219 177.199219 134.074219 177.550781 134.042969 C 177.691406 134.042969 177.828125 134.03125 177.964844 134.015625 C 178.316406 133.984375 178.671875 133.953125 179.039062 133.921875 C 179.191406 133.90625 179.359375 133.875 179.511719 133.859375 C 179.882812 133.816406 180.25 133.769531 180.632812 133.707031 C 180.800781 133.675781 180.96875 133.644531 181.152344 133.628906 C 181.535156 133.570312 181.921875 133.492188 182.320312 133.417969 C 182.503906 133.386719 182.6875 133.339844 182.855469 133.308594 C 183.253906 133.230469 183.667969 133.140625 184.082031 133.046875 C 184.265625 133.003906 184.433594 132.972656 184.617188 132.925781 C 185.03125 132.820312 185.460938 132.710938 185.890625 132.605469 C 186.074219 132.558594 186.257812 132.511719 186.441406 132.449219 C 186.871094 132.328125 187.316406 132.207031 187.746094 132.066406 C 187.929688 132.023438 188.097656 131.960938 188.28125 131.898438 C 188.742188 131.761719 189.1875 131.609375 189.644531 131.453125 C 189.8125 131.394531 189.96875 131.347656 190.136719 131.285156 C 190.625 131.117188 191.101562 130.949219 191.59375 130.765625 C 191.730469 130.71875 191.867188 130.671875 191.992188 130.613281 C 192.527344 130.414062 193.046875 130.214844 193.570312 130 C 193.660156 129.96875 193.753906 129.921875 193.828125 129.890625 C 195.101562 129.371094 196.359375 128.820312 197.570312 128.234375 C 197.492188 129.277344 197.476562 130.351562 197.476562 131.453125 C 197.476562 131.484375 197.476562 131.515625 197.476562 131.5625 C 197.476562 132.632812 197.523438 133.738281 197.585938 134.839844 C 197.585938 134.871094 197.585938 134.917969 197.585938 134.949219 C 197.707031 137.339844 197.90625 139.777344 198.089844 142.121094 C 198.152344 142.964844 198.214844 143.792969 198.257812 144.621094 C 198.257812 144.851562 198.289062 145.078125 198.304688 145.308594 C 198.351562 146.214844 198.382812 147.070312 198.398438 147.929688 C 198.398438 148.082031 198.398438 148.238281 198.398438 148.390625 C 198.398438 149.277344 198.367188 150.152344 198.320312 150.964844 C 198.320312 151.058594 198.320312 151.148438 198.304688 151.226562 C 198.230469 152.097656 198.121094 152.925781 197.953125 153.691406 C 197.953125 153.691406 197.953125 153.722656 197.953125 153.722656 C 197.785156 155.195312 197.601562 156.667969 197.449219 158.136719 C 197.433594 158.304688 197.417969 158.476562 197.402344 158.644531 C 196.636719 158.261719 195.867188 157.890625 195.101562 157.507812 C 193.476562 156.710938 191.820312 155.914062 190.195312 155.101562 C 190.074219 155.042969 189.9375 154.964844 189.8125 154.902344 C 189.15625 154.566406 188.480469 154.230469 187.835938 153.890625 C 187.714844 153.832031 187.605469 153.769531 187.484375 153.707031 C 186.75 153.324219 186.011719 152.925781 185.308594 152.527344 C 185.199219 152.46875 185.09375 152.40625 184.984375 152.34375 C 184.371094 152.007812 183.773438 151.65625 183.191406 151.300781 C 183.039062 151.210938 182.902344 151.117188 182.746094 151.027344 C 182.074219 150.613281 181.414062 150.199219 180.785156 149.753906 C 180.738281 149.722656 180.710938 149.691406 180.664062 149.664062 C 180.097656 149.265625 179.542969 148.867188 179.007812 148.453125 C 178.871094 148.34375 178.714844 148.222656 178.578125 148.113281 C 178.058594 147.699219 177.550781 147.285156 177.09375 146.84375 C 177.046875 146.8125 177 146.765625 176.96875 146.734375 C 176.480469 146.273438 176.019531 145.800781 175.589844 145.324219 Z M 272.785156 273.5625 C 272.785156 273.5625 272.707031 273.5 272.660156 273.484375 C 272.476562 273.363281 272.277344 273.238281 272.09375 273.101562 C 271.878906 272.964844 271.679688 272.808594 271.480469 272.65625 C 271.3125 272.535156 271.144531 272.410156 270.976562 272.273438 C 270.714844 272.074219 270.46875 271.84375 270.226562 271.613281 C 270.117188 271.507812 269.996094 271.414062 269.886719 271.308594 C 269.535156 270.96875 269.183594 270.601562 268.84375 270.21875 C 268.738281 270.097656 268.628906 269.972656 268.539062 269.851562 C 268.292969 269.5625 268.046875 269.253906 267.804688 268.917969 C 267.679688 268.75 267.558594 268.59375 267.449219 268.425781 C 267.21875 268.105469 266.992188 267.753906 266.761719 267.398438 C 266.652344 267.230469 266.53125 267.046875 266.421875 266.878906 C 266.132812 266.386719 265.839844 265.882812 265.566406 265.347656 C 265.535156 265.285156 265.488281 265.222656 265.457031 265.160156 C 260.078125 259.277344 256.582031 252.6875 253.886719 245.804688 C 249.070312 233.511719 246.847656 220.269531 241.363281 208.378906 C 239.675781 204.714844 237.699219 201.160156 235.199219 197.816406 C 226.664062 191.335938 221.375 185.632812 218.230469 180.191406 C 214.722656 174.136719 213.863281 168.40625 214.125 162.246094 C 214.554688 151.929688 218.109375 140.421875 217.605469 124.28125 C 226.601562 125.628906 235.539062 130.273438 244.671875 130.183594 C 247.722656 130.152344 250.789062 129.601562 253.898438 128.21875 C 253.914062 128.21875 253.929688 128.21875 253.945312 128.21875 C 254.636719 128.035156 255.355469 127.808594 256.078125 127.546875 C 256.214844 127.5 256.351562 127.453125 256.492188 127.410156 C 257.179688 127.164062 257.902344 126.886719 258.621094 126.582031 C 258.804688 126.503906 258.988281 126.425781 259.1875 126.351562 C 259.894531 126.042969 260.613281 125.738281 261.335938 125.402344 C 261.535156 125.308594 261.71875 125.214844 261.917969 125.125 C 262.53125 124.832031 263.160156 124.542969 263.785156 124.234375 C 264.140625 124.066406 264.507812 123.882812 264.875 123.714844 C 265.351562 123.484375 265.839844 123.238281 266.316406 122.996094 C 269.257812 121.539062 272.277344 120.003906 275.3125 118.640625 C 275.359375 118.625 275.40625 118.59375 275.453125 118.582031 C 276.324219 118.183594 277.199219 117.8125 278.074219 117.460938 C 278.195312 117.414062 278.316406 117.371094 278.441406 117.308594 C 279.296875 116.957031 280.15625 116.632812 281.015625 116.328125 C 281.121094 116.296875 281.230469 116.25 281.320312 116.21875 C 283.085938 115.605469 284.816406 115.117188 286.535156 114.78125 C 286.65625 114.765625 286.761719 114.734375 286.886719 114.703125 C 287.699219 114.550781 288.511719 114.441406 289.308594 114.367188 C 289.445312 114.367188 289.582031 114.351562 289.722656 114.335938 C 290.535156 114.273438 291.332031 114.257812 292.113281 114.289062 C 292.203125 114.289062 292.28125 114.289062 292.375 114.304688 C 293.15625 114.351562 293.921875 114.441406 294.6875 114.582031 C 294.75 114.582031 294.796875 114.59375 294.855469 114.609375 C 295.625 114.765625 296.375 114.992188 297.109375 115.269531 C 297.1875 115.300781 297.261719 115.300781 297.339844 115.332031 C 297.339844 115.332031 297.339844 115.332031 297.339844 115.347656 C 297.339844 115.4375 297.339844 115.53125 297.339844 115.621094 C 297.292969 116.585938 297.261719 117.554688 297.246094 118.535156 C 297.246094 118.765625 297.246094 118.996094 297.246094 119.222656 C 297.246094 120.28125 297.277344 121.339844 297.324219 122.410156 C 297.324219 122.441406 297.324219 122.472656 297.324219 122.503906 C 297.386719 123.636719 297.460938 124.773438 297.554688 125.921875 C 297.570312 126.121094 297.585938 126.304688 297.617188 126.503906 C 297.707031 127.453125 297.800781 128.40625 297.921875 129.355469 C 297.953125 129.585938 297.96875 129.816406 298 130.027344 C 298.273438 132.296875 298.628906 134.566406 299.011719 136.847656 C 299.042969 137.0625 299.085938 137.261719 299.117188 137.476562 C 299.285156 138.503906 299.46875 139.53125 299.65625 140.558594 C 299.667969 140.664062 299.699219 140.773438 299.714844 140.878906 C 300.191406 143.515625 300.679688 146.152344 301.171875 148.789062 C 301.277344 149.417969 301.402344 150.03125 301.507812 150.660156 C 301.585938 151.132812 301.675781 151.59375 301.753906 152.054688 C 301.9375 153.078125 302.105469 154.105469 302.277344 155.132812 C 302.335938 155.472656 302.382812 155.808594 302.429688 156.128906 C 302.550781 156.894531 302.660156 157.664062 302.78125 158.414062 C 302.84375 158.796875 302.886719 159.195312 302.949219 159.578125 C 303.058594 160.40625 303.164062 161.234375 303.257812 162.0625 C 303.285156 162.320312 303.316406 162.597656 303.347656 162.859375 C 303.457031 163.902344 303.546875 164.925781 303.640625 165.953125 C 303.671875 166.292969 303.6875 166.628906 303.699219 166.964844 C 303.746094 167.714844 303.792969 168.46875 303.824219 169.21875 C 303.824219 169.585938 303.855469 169.9375 303.855469 170.308594 C 303.871094 171.257812 303.886719 172.191406 303.855469 173.128906 C 303.855469 173.21875 303.855469 173.328125 303.855469 173.417969 C 304.128906 179.488281 302.488281 185.203125 300.007812 190.597656 C 298.886719 193.019531 297.632812 195.382812 296.265625 197.664062 C 291.976562 205.617188 288.1875 213.804688 284.527344 222.0625 C 283.730469 223.855469 282.929688 225.636719 282.148438 227.429688 C 279.207031 234.109375 276.433594 240.898438 274.898438 248.058594 C 274.867188 248.242188 274.855469 248.410156 274.824219 248.59375 C 274.46875 250.632812 274.164062 252.703125 273.902344 254.769531 C 273.8125 255.523438 273.75 256.289062 273.65625 257.039062 C 273.488281 258.539062 273.335938 260.058594 273.214844 261.574219 C 273.136719 262.480469 273.105469 263.382812 273.046875 264.289062 C 272.96875 265.652344 272.890625 267.015625 272.859375 268.378906 C 272.832031 269.390625 272.832031 270.402344 272.832031 271.414062 C 272.832031 272.152344 272.84375 272.871094 272.859375 273.605469 C 272.84375 273.605469 272.832031 273.589844 272.816406 273.574219 Z M 331.597656 340.707031 C 327.335938 337.441406 323.136719 334.070312 319.136719 330.484375 C 316.792969 328.382812 314.476562 326.222656 312.316406 323.9375 C 307.503906 318.605469 303.699219 312.488281 300.265625 306.175781 C 299.410156 304.597656 298.550781 303.003906 297.722656 301.410156 C 297.707031 301.363281 297.691406 301.332031 297.660156 301.285156 C 296.648438 299.371094 295.699219 297.410156 294.824219 295.429688 C 294.78125 295.339844 294.75 295.230469 294.703125 295.140625 C 293.84375 293.195312 293.078125 291.203125 292.390625 289.195312 C 292.375 289.148438 292.34375 289.101562 292.328125 289.039062 C 292.328125 289.039062 292.328125 289.023438 292.328125 289.011719 C 292.328125 288.996094 292.328125 288.964844 292.3125 288.949219 C 292.3125 288.855469 292.34375 288.765625 292.34375 288.671875 C 292.402344 288.199219 292.417969 287.707031 292.417969 287.230469 C 292.417969 287.015625 292.417969 286.804688 292.417969 286.589844 C 292.390625 286.007812 292.296875 285.4375 292.175781 284.871094 C 292.160156 284.78125 292.144531 284.671875 292.128906 284.582031 C 291.960938 283.921875 291.714844 283.292969 291.421875 282.679688 C 291.347656 282.527344 291.238281 282.375 291.164062 282.21875 C 290.917969 281.777344 290.625 281.332031 290.289062 280.917969 C 290.242188 280.855469 290.179688 280.792969 290.136719 280.734375 C 290.136719 280.703125 290.136719 280.6875 290.121094 280.65625 C 290.121094 280.65625 290.121094 280.640625 290.121094 280.640625 C 290.121094 280.582031 290.105469 280.519531 290.089844 280.441406 C 289.90625 279.476562 289.753906 278.511719 289.628906 277.546875 C 289.597656 277.363281 289.570312 277.179688 289.539062 276.992188 C 289.15625 274.175781 288.878906 271.324219 288.726562 268.441406 C 288.433594 262.863281 288.617188 257.238281 289.570312 251.78125 C 290.902344 245.191406 293.0625 238.816406 295.546875 232.546875 C 297.0625 228.746094 298.6875 224.976562 300.34375 221.238281 C 301.492188 218.632812 302.660156 216.027344 303.777344 213.421875 C 304.972656 210.84375 306.308594 208.332031 307.6875 205.832031 C 312.652344 196.746094 318.171875 187.871094 320.023438 177.539062 C 320.5 175.332031 320.898438 173.097656 321.234375 170.859375 C 322.355469 163.515625 322.800781 156.054688 322.675781 148.652344 C 322.570312 142.644531 322.246094 136.648438 322.246094 130.640625 C 322.246094 127.667969 322.308594 124.695312 322.570312 121.707031 C 322.84375 113.796875 325.664062 108.785156 332.378906 104.984375 C 332.703125 104.800781 332.976562 104.617188 333.328125 104.433594 C 333.34375 104.433594 333.359375 104.417969 333.375 104.402344 C 345.46875 97.445312 360.046875 96.753906 373.703125 96.265625 C 374.378906 96.21875 375.050781 96.21875 375.742188 96.234375 C 375.851562 96.234375 375.972656 96.234375 376.078125 96.234375 C 376.664062 96.25 377.261719 96.28125 377.84375 96.3125 C 377.949219 96.3125 378.042969 96.3125 378.148438 96.328125 C 378.929688 96.371094 379.726562 96.417969 380.507812 96.464844 C 380.90625 96.496094 381.304688 96.511719 381.691406 96.527344 C 381.78125 96.710938 381.890625 96.910156 381.980469 97.09375 C 382.441406 97.964844 382.929688 98.839844 383.46875 99.730469 C 383.621094 99.972656 383.742188 100.21875 383.898438 100.464844 C 384.585938 101.550781 385.351562 102.671875 386.164062 103.789062 C 386.394531 104.113281 386.640625 104.433594 386.886719 104.742188 C 387.574219 105.660156 388.3125 106.59375 389.09375 107.53125 C 389.339844 107.820312 389.554688 108.097656 389.796875 108.386719 C 390.808594 109.570312 391.882812 110.75 393.015625 111.960938 C 393.261719 112.21875 393.539062 112.480469 393.785156 112.742188 C 394.765625 113.753906 395.808594 114.78125 396.894531 115.804688 C 397.21875 116.113281 397.539062 116.417969 397.875 116.742188 C 399.242188 117.996094 400.652344 119.285156 402.167969 120.574219 C 402.351562 120.726562 402.535156 120.878906 402.71875 121.03125 C 404.082031 122.199219 405.539062 123.363281 407.027344 124.558594 C 407.441406 124.878906 407.855469 125.214844 408.285156 125.539062 C 410.015625 126.871094 411.792969 128.21875 413.679688 129.601562 C 416.578125 132.480469 419.105469 135.546875 421.34375 138.75 C 421.925781 139.59375 422.476562 140.449219 423.03125 141.308594 C 423.351562 141.832031 423.703125 142.320312 424.011719 142.84375 C 433.300781 158.503906 435.707031 177.171875 433.359375 195.671875 C 430.753906 216.210938 422.277344 236.53125 410.75 252.320312 C 389.507812 277.730469 368.125 305.425781 361.074219 338.5 C 360.550781 341.394531 360.078125 344.351562 359.664062 347.3125 C 359.632812 347.542969 359.585938 347.785156 359.554688 348.015625 C 359.171875 350.804688 358.867188 353.609375 358.589844 356.445312 C 358.558594 356.722656 358.527344 356.996094 358.515625 357.289062 C 358.390625 357.226562 358.269531 357.152344 358.144531 357.089844 C 356.613281 356.277344 355.109375 355.433594 353.609375 354.605469 C 350.265625 352.8125 346.988281 350.898438 343.769531 348.921875 C 339.597656 346.347656 335.523438 343.617188 331.597656 340.644531 Z M 532.6875 526.109375 C 532.578125 526.09375 532.457031 526.078125 532.332031 526.0625 C 532.316406 526.0625 532.289062 526.0625 532.273438 526.0625 C 527.273438 525.296875 522.324219 524.164062 517.480469 522.8125 C 512.789062 521.496094 508.207031 519.980469 503.839844 518.355469 C 490.976562 510.15625 477.71875 502.675781 464.460938 495.164062 C 459.386719 492.300781 454.328125 489.417969 449.285156 486.492188 C 405.707031 454.6875 386.472656 433.523438 384.171875 377.183594 C 383.558594 370.195312 383.605469 363.433594 384.171875 356.875 C 387.421875 320 407.976562 289.285156 429.773438 258.984375 C 438.648438 243.644531 444.839844 225.652344 447.429688 207.210938 C 452.382812 171.992188 444.195312 135.101562 416.4375 111.714844 C 414.644531 109.675781 412.53125 107.589844 410.429688 105.414062 C 405.402344 100.21875 400.453125 94.546875 400.066406 87.714844 C 408.882812 81.445312 418.675781 76.648438 428.914062 73.03125 C 439.964844 69.136719 451.539062 66.625 463.066406 65.273438 C 471.375 64.078125 479.695312 63.972656 487.957031 64.707031 C 507.410156 66.441406 526.460938 72.921875 544.011719 81.320312 C 555.109375 87.191406 563.113281 95.683594 569.441406 105.460938 C 578.839844 119.992188 584.523438 137.402344 590.976562 153.539062 C 591.332031 154.414062 591.667969 155.285156 592.019531 156.144531 C 593.382812 158.964844 594.703125 161.816406 595.976562 164.683594 C 596.25 165.308594 596.511719 165.953125 596.789062 166.597656 C 615.320312 209.019531 624.117188 255.335938 622.707031 301.652344 C 619.824219 336.8125 610.597656 371.28125 599.761719 404.753906 C 597.828125 410.074219 595.867188 415.375 593.875 420.679688 C 584.25 446.472656 574.394531 472.265625 567.417969 498.90625 C 565.121094 507.6875 563.128906 516.5625 561.5625 525.574219 C 552.242188 527.734375 542.402344 527.609375 532.65625 526.15625 Z M 1228.636719 656.492188 C 1218.382812 664.875 1206.980469 672.199219 1197.121094 680.722656 C 1175.144531 700.15625 1149.851562 714.59375 1123.503906 727.023438 C 1108.511719 734.089844 1093.199219 740.511719 1077.933594 746.824219 C 1069.257812 750.242188 1060.382812 753.0625 1051.414062 755.515625 C 1035.015625 760.003906 1018.230469 763.191406 1001.429688 765.921875 C 1001.429688 765.921875 1001.398438 765.921875 1001.382812 765.921875 C 1001.355469 765.921875 1001.324219 765.921875 1001.292969 765.921875 C 997.613281 766.519531 993.921875 767.101562 990.242188 767.667969 C 986.058594 768.417969 981.871094 769.125 977.6875 769.8125 C 951.109375 774.136719 924.300781 777.003906 897.367188 776.878906 C 897.339844 776.878906 897.308594 776.878906 897.277344 776.878906 C 897.230469 776.878906 897.183594 776.878906 897.15625 776.878906 C 892.738281 776.863281 888.324219 776.757812 883.894531 776.574219 C 878.132812 776.234375 872.324219 776.035156 866.515625 775.914062 C 853.363281 775.621094 840.148438 775.683594 827 775.179688 C 808.4375 774.472656 790.027344 772.664062 772.15625 767.148438 C 747.476562 759.515625 722.539062 751.914062 699.007812 741.199219 C 686.410156 734.761719 675.417969 725.78125 663.726562 717.886719 C 662.375 716.984375 661.042969 716.078125 659.679688 715.222656 C 641.46875 704.003906 627.199219 687.832031 615.824219 669.75 C 609.003906 658.898438 603.226562 647.355469 598.257812 635.785156 C 571.710938 578.910156 578.730469 524.667969 593.859375 470.566406 C 594.320312 468.925781 594.78125 467.285156 595.253906 465.648438 C 609.433594 416.464844 629.679688 367.328125 636.855469 316.382812 C 641.007812 290.050781 640.546875 263.582031 636.808594 237.511719 C 635.644531 229.359375 634.140625 221.25 632.363281 213.175781 C 627.167969 189.570312 619.59375 166.414062 610.519531 144.113281 C 608.222656 138.058594 606.152344 131.882812 604.039062 125.738281 C 601.035156 117.03125 597.890625 108.359375 593.921875 100.082031 C 592.402344 96.925781 590.792969 93.796875 588.96875 90.761719 C 586.902344 87.328125 584.449219 84.15625 581.734375 81.214844 C 599.699219 68.863281 620.898438 61.828125 641.667969 55.664062 C 644.78125 54.609375 647.921875 53.566406 651.046875 52.554688 C 651.875 52.277344 652.703125 52.019531 653.546875 51.757812 C 656.03125 50.960938 658.527344 50.195312 661.027344 49.441406 C 661.777344 49.214844 662.527344 48.984375 663.28125 48.753906 C 666.421875 47.820312 669.578125 46.898438 672.753906 46.023438 C 673.289062 45.871094 673.824219 45.734375 674.363281 45.582031 C 677.03125 44.84375 679.695312 44.140625 682.378906 43.449219 C 683.28125 43.21875 684.1875 42.992188 685.09375 42.761719 C 687.804688 42.070312 690.519531 41.410156 693.246094 40.769531 C 693.753906 40.644531 694.257812 40.523438 694.777344 40.402344 C 697.984375 39.648438 701.203125 38.945312 704.421875 38.269531 C 705.203125 38.101562 705.96875 37.949219 706.75 37.796875 C 709.292969 37.273438 711.855469 36.769531 714.398438 36.277344 C 715.257812 36.109375 716.132812 35.957031 716.988281 35.789062 C 720.253906 35.1875 723.519531 34.621094 726.785156 34.085938 C 726.785156 34.085938 726.816406 34.085938 726.828125 34.085938 C 730.0625 33.566406 733.3125 33.089844 736.546875 32.644531 C 737.40625 32.523438 738.28125 32.414062 739.152344 32.292969 C 741.773438 31.941406 744.410156 31.632812 747.046875 31.328125 C 747.769531 31.25 748.488281 31.160156 749.207031 31.082031 C 752.488281 30.730469 755.785156 30.40625 759.078125 30.148438 C 759.632812 30.101562 760.183594 30.070312 760.734375 30.023438 C 762.574219 29.886719 764.414062 29.734375 766.269531 29.609375 C 766.742188 29.71875 767.203125 29.839844 767.679688 29.949219 C 770.714844 30.652344 773.765625 31.375 776.800781 32.078125 C 779.957031 32.8125 783.113281 33.535156 786.289062 34.179688 C 786.316406 34.179688 786.347656 34.179688 786.378906 34.191406 C 791.804688 35.175781 797.246094 35.988281 802.703125 36.828125 C 805.769531 37.289062 808.820312 37.796875 811.886719 38.300781 C 816.328125 39.035156 820.773438 39.816406 825.175781 40.800781 C 842.433594 45.074219 859.171875 51.421875 875.574219 58.253906 C 888.648438 63.851562 901.03125 70.898438 913.816406 77.121094 C 917.894531 78.960938 921.863281 81 925.742188 83.175781 C 934.507812 88.113281 942.816406 93.859375 950.585938 100.265625 C 952.152344 101.554688 953.699219 102.871094 955.230469 104.21875 C 956.03125 104.984375 956.75 105.828125 957.5 106.65625 C 958.652344 107.914062 959.785156 109.183594 960.886719 110.488281 C 961.578125 111.316406 962.269531 112.144531 962.957031 112.957031 C 963.308594 113.371094 963.679688 113.722656 964.046875 114.042969 C 964.167969 114.136719 964.292969 114.210938 964.414062 114.304688 C 964.675781 114.503906 964.949219 114.703125 965.242188 114.855469 C 965.410156 114.949219 965.59375 115.023438 965.777344 115.101562 C 966.023438 115.222656 966.285156 115.332031 966.542969 115.421875 C 966.773438 115.5 967.003906 115.5625 967.234375 115.621094 C 967.386719 115.667969 967.539062 115.699219 967.679688 115.730469 C 967.679688 115.730469 967.710938 115.746094 967.710938 115.761719 C 968.707031 116.648438 969.703125 117.539062 970.699219 118.441406 C 972.539062 120.082031 974.390625 121.738281 976.230469 123.394531 C 977.902344 124.894531 979.542969 126.441406 981.183594 127.960938 C 982.4375 129.109375 983.710938 130.242188 984.9375 131.425781 C 992.109375 138.367188 999.4375 145.277344 1005.402344 153.308594 C 1022.261719 177.785156 1028.5625 207.535156 1039.78125 234.707031 C 1043.492188 244.304688 1047.351562 253.882812 1050.542969 263.660156 C 1056.65625 281.804688 1059.523438 300.78125 1063.25 319.492188 C 1067.234375 339.601562 1075.1875 358.667969 1078.867188 378.835938 C 1082.316406 398.59375 1083.878906 418.734375 1089.320312 438.089844 C 1090.378906 441.84375 1091.542969 445.554688 1092.769531 449.246094 C 1095.484375 457.417969 1098.441406 465.492188 1101.046875 473.691406 C 1101.980469 476.621094 1102.871094 479.5625 1103.667969 482.535156 C 1109.402344 504.191406 1111.46875 527.011719 1121.296875 547.414062 C 1123.5625 552.085938 1126.183594 556.546875 1129.050781 560.855469 C 1132.421875 565.910156 1136.148438 570.738281 1140.148438 575.351562 C 1147.261719 583.566406 1155.1875 591.125 1163.308594 598.203125 C 1167.753906 601.761719 1172.414062 605.054688 1177.226562 608.121094 C 1177.367188 608.210938 1177.519531 608.289062 1177.671875 608.382812 C 1179.128906 609.300781 1180.597656 610.207031 1182.085938 611.078125 C 1182.746094 611.460938 1183.40625 611.816406 1184.0625 612.199219 C 1185.058594 612.765625 1186.039062 613.332031 1187.050781 613.882812 C 1187.941406 614.375 1188.859375 614.820312 1189.765625 615.292969 C 1190.546875 615.707031 1191.328125 616.121094 1192.109375 616.519531 C 1193.136719 617.027344 1194.179688 617.515625 1195.222656 618.007812 C 1195.914062 618.328125 1196.585938 618.664062 1197.261719 618.988281 C 1198.425781 619.523438 1199.605469 620.015625 1200.769531 620.519531 C 1201.339844 620.765625 1201.90625 621.027344 1202.488281 621.269531 C 1203.699219 621.777344 1204.941406 622.25 1206.167969 622.742188 C 1206.71875 622.957031 1207.253906 623.1875 1207.792969 623.386719 C 1209.03125 623.859375 1210.289062 624.289062 1211.53125 624.734375 C 1212.066406 624.933594 1212.605469 625.132812 1213.15625 625.316406 C 1214.398438 625.746094 1215.65625 626.144531 1216.910156 626.542969 C 1217.464844 626.726562 1218.03125 626.910156 1218.582031 627.078125 C 1219.792969 627.449219 1221.019531 627.800781 1222.246094 628.136719 C 1222.859375 628.304688 1223.457031 628.488281 1224.070312 628.65625 C 1225.265625 628.980469 1226.460938 629.269531 1227.65625 629.578125 C 1228.300781 629.746094 1228.945312 629.914062 1229.589844 630.066406 C 1230.785156 630.359375 1231.980469 630.605469 1233.191406 630.863281 C 1233.847656 631.003906 1234.492188 631.15625 1235.152344 631.292969 C 1236.316406 631.523438 1237.480469 631.738281 1238.632812 631.953125 C 1239.335938 632.074219 1240.042969 632.230469 1240.746094 632.351562 C 1241.851562 632.535156 1242.953125 632.703125 1244.058594 632.871094 C 1244.777344 632.980469 1245.5 633.101562 1246.234375 633.210938 C 1246.234375 633.210938 1246.25 633.210938 1246.265625 633.210938 C 1246.433594 633.546875 1246.527344 633.914062 1246.648438 634.269531 C 1246.738281 634.527344 1246.863281 634.773438 1246.9375 635.035156 C 1247.109375 635.707031 1247.214844 636.382812 1247.214844 637.101562 C 1242.15625 644.550781 1235.671875 650.757812 1228.652344 656.492188 Z M 1228.636719 656.492188 " fill-opacity="1" fill-rule="nonzero"/></svg>